<mxfile host="app.diagrams.net" modified="2021-01-16T18:31:58.284Z" agent="5.0 (Windows NT 10.0; Win64; x64) AppleWebKit/537.36 (KHTML, like Gecko) Chrome/87.0.4280.141 Safari/537.36" etag="BVLYXhN49BUTf9Zmd9KO" version="14.2.3" type="github">
  <diagram id="Zt7Xw9XqJhSenWX1RiCg" name="Page-1">
    <mxGraphModel dx="868" dy="1550" grid="1" gridSize="10" guides="1" tooltips="1" connect="1" arrows="1" fold="1" page="1" pageScale="1" pageWidth="850" pageHeight="1100" math="0" shadow="0">
      <root>
        <mxCell id="0" />
        <mxCell id="1" parent="0" />
        <mxCell id="mggX9JK2n9Wl0W4keAl1-4" value="&amp;nbsp; &amp;nbsp; &amp;nbsp; &amp;nbsp; &amp;nbsp; &amp;nbsp; &amp;nbsp; &amp;nbsp; &amp;nbsp; &amp;nbsp; &amp;nbsp; &amp;nbsp; &amp;nbsp; &amp;nbsp; &amp;nbsp; &amp;nbsp; &amp;nbsp; &amp;nbsp; &amp;nbsp; &amp;nbsp; &amp;nbsp; &amp;nbsp; &amp;nbsp; &amp;nbsp; &amp;nbsp; &amp;nbsp; &amp;nbsp; &amp;nbsp; &amp;nbsp; &amp;nbsp; &amp;nbsp; &amp;nbsp; &amp;nbsp; &amp;nbsp; &amp;nbsp; &amp;nbsp; &amp;nbsp; &amp;nbsp; &amp;nbsp; &amp;nbsp; &amp;nbsp; &amp;nbsp; &amp;nbsp; &amp;nbsp; &amp;nbsp; &amp;nbsp; &amp;nbsp; &amp;nbsp; &amp;nbsp; &amp;nbsp; &amp;nbsp; &amp;nbsp; &amp;nbsp; &amp;nbsp; &amp;nbsp; &amp;nbsp; &amp;nbsp; &amp;nbsp; &amp;nbsp; &amp;nbsp; &amp;nbsp; &amp;nbsp; &amp;nbsp; &lt;font face=&quot;Tahoma&quot; style=&quot;font-size: 11px&quot;&gt;Subnet&lt;/font&gt;" style="rounded=0;whiteSpace=wrap;html=1;dashed=1;verticalAlign=bottom;" vertex="1" parent="1">
          <mxGeometry x="221.09" y="-180" width="490" height="220" as="geometry" />
        </mxCell>
        <mxCell id="mggX9JK2n9Wl0W4keAl1-8" value="" style="rounded=0;whiteSpace=wrap;html=1;dashed=1;" vertex="1" parent="1">
          <mxGeometry x="250" y="-160" width="100" height="180" as="geometry" />
        </mxCell>
        <mxCell id="mggX9JK2n9Wl0W4keAl1-42" value="Service Mesh&lt;br style=&quot;font-size: 10px;&quot;&gt;+&lt;br style=&quot;font-size: 10px;&quot;&gt;Ingress Controller&lt;br style=&quot;font-size: 10px;&quot;&gt;" style="whiteSpace=wrap;html=1;aspect=fixed;dashed=1;fillColor=#dae8fc;strokeColor=#6c8ebf;align=center;verticalAlign=top;fontSize=10;fontStyle=0;fontFamily=Tahoma;" vertex="1" parent="1">
          <mxGeometry x="260" y="-156" width="82" height="82" as="geometry" />
        </mxCell>
        <mxCell id="mggX9JK2n9Wl0W4keAl1-7" value="&lt;font style=&quot;font-size: 11px&quot; face=&quot;Tahoma&quot;&gt;&lt;b&gt;AKS Cluster&lt;/b&gt;&lt;/font&gt;" style="rounded=0;whiteSpace=wrap;html=1;dashed=1;verticalAlign=bottom;align=left;" vertex="1" parent="1">
          <mxGeometry x="360" y="-160" width="320" height="180" as="geometry" />
        </mxCell>
        <mxCell id="mggX9JK2n9Wl0W4keAl1-31" value="&lt;br&gt;&lt;br&gt;&lt;br&gt;&lt;br&gt;Redis Cache&lt;br&gt;Namespace" style="whiteSpace=wrap;html=1;aspect=fixed;dashed=1;fontFamily=Tahoma;fontSize=10;" vertex="1" parent="1">
          <mxGeometry x="595" y="-70" width="80" height="80" as="geometry" />
        </mxCell>
        <mxCell id="mggX9JK2n9Wl0W4keAl1-32" value="" style="shape=image;verticalLabelPosition=bottom;labelBackgroundColor=#ffffff;verticalAlign=top;aspect=fixed;imageAspect=0;image=data:image/png,iVBORw0KGgoAAAANSUhEUgAAADIAAAAyCAYAAAAeP4ixAAAM0UlEQVRoBe1ZeXBV1R1+tiqLrOGt99635L2ExRBjKKIjWvUP/2jrMCqCSx2tTtUqFXCpFlDGfWxdkUBCgEQUg0IISUheEhKyQgIogggIiIKoLAoRBCEmyNf5zn2/9ObxsgjpdMbxzZw55957lu/7reecZ8Mv5Gf7hfDAr0S6oslTzc1oPnwYzYeP4FRzS1eGnHGfbtdI88GD+Cr7LWy67U7UX3oFqgYPV6V+1Gh8dOsd6tuP3357xoDbG9htRI58uBHbH5uCVcNS0DDQjbpeA1AzyIMqh65KjUNHvcPAmkEa6oYkY8fj03D4/fXt4frZ78+KyMnvv8f+JUux4YZxqLRrWOs0UNnfgdrUUVh33fUo7ROH4t/0QknP/ij+bS/VLncaqPUlYK3dJLhhzFjsXfQeWo58/7PBWwecEZGjW7bis6eeRf3Fl6DBYWC1w0CFXUPZIA/C5/VB9ZBknPzhOBrrG/Dx/Q+i/sprsOm+CfgyawH25eWr76X97GoMx3KO+pRLsPOpZ3F06ydWfF1ud5nIyRNN+KYorGx/pcuLdU4DNJcVdk2Vsjg3KO3qpIux/qZbEcsPWo4eVdoqsp3XOk7GVzt0U6NOA5tuuR0H8gtx8sSJ7iPyw+e7sPulV9Ew6gqsduhKeisj0l8xyGOSGOBETfIIbJv6JL4Jl+L4ni/xUwwQPzU1YXdaOhquvhYrKITIeCHDeWmi9CWWhktGY9e/X8HxXbs7JRRbI6dO4WDFSmy++15UGUElqeq+gxCO2Hn4/D4I9+wH1mL7Zf0dKHd5VSGw+iuuAcMvfweKS7Dh9ruw5aFHsfPFl7BtypOoSUqFGhMBTxLLHBrCdg1s01RrI1qq9oaw6S9/xcGycpxqiR3G2xBp+nov9szKwLqrrkWdQ8cap4GVcW4Un9sbNcNTsXnCJOxOz8S+3GX4tqIS+5cV4IuMTGz++2T1naRK+ztQNsCJIlsP7Jmbpb6X9B6gnoV0+Py+KI9zoyoC+F2Hjn+5dExzG5jt0pHj0FBsIUQtmb6oY83oq7F7xkwQq/WniDSurseWCRNRGxyqpE8S5TSfOLcCRim2HD5iHXdam1Hn85dfUyQ4bgWLXUNJ74HqnTKliD+RQJldw1tOHc+5DTziMTDJYygiM106XnfpSHPp6nuhw9QONURMxMboWBMciq0TJqGxbrXCYvv0meeV7avQaf+v8xJE8bkX4KO77jkNdEcvNk98WJkbx5cNdLfxAyUcu4Y5Th1TPQYmeww87DHwmMfAox4DT7gNRYBk3ogQmuHSMdepI99hEuG8LJV2kxB9acf0p2ErH3YRVtl1ZZPSSeqSnv2w7g9jOsJ92rf1428DTUfmsNYkwue3nTpecOsK/EMeA/+IQYQEqJlZEc0sj2jEOp/yI7uGsB6A7c3kVOTqAazQA6ikT0QNIJn3x9yIQ7WrWp03Gj2dunHVaqwfdytKevWPSYIRiiZH/6kc5FHRaalDw2suHf/0GJjoMTDVbbRqIsOlg75TEvEVEQJrFd2chsK81J+ADN0PW0ZoCN5wG0jX/cjxh1DsDYJ5QiIHJcDoxCy9atRobLjtDmyZ9Ai2T39a1XzmezOL91Q+VXLBQIR79FVBovicniqjU0sMBJWBwSh3+5TJ0YnpL/QD+sTTbgOZTh25DlNzVqFS+uxPbMRIrBlGADPcBmiKtnR/qNUuqc6Zuh9Z3iCW+UIo1/yodETMLs6tHDd83gWRkNtT1XwmCYZSOjSB1v3uMqz70/X46O57sW3adOyelYEDRWEc+XAD9hcUmpqJBAMKioBJiNKXZ9GAIsDgowWQ709Ati+kMNLsSECKLd1tRgh5wVo5mttQjBdpfiyPRA6rhMRWS/sOwurLr8K+JXlo2rsXJ48ew0+R/BFtgnz+4MablYZlvLUmeCliEUV2DTkeH+Z44zHD41XYrFjZnuM2YCu9935ke7yYHbFPayeJHKyznDpo0wybsogCEbH92pSR2PHsCzi+u/0s/NXCHNDUojO6kKH0OTef8xyaWpN4oqXPd8SU5jaQ5fGi7L4HzBPizqIwFo+6HOkuQw1iJyshmYwT0gkXRRKWLEwplva1o+icHsq8GLIbV9W3UUjzoUOoGpwE+o8AZ82xBM/CJMi5M5wmeK4XjYXPfM/E+W5yKrYvWarWsf3w6U7seGAi6kJDUezQsdBpdmJn5TNRpCQskly2U1fbCgIiEIJiVFJb9z5xaiu/P79QRbtPHpuisrskRiHAscwRbzpNE+9sXRJg+C5yaKg1Qtgy/s/4bs062BpGX40PnV6VR2TyUruGJQ5NJSKRQHuSITFGmvcs+yRlHnFutaUP9+iH1ZddaUaqOLdah9+5p+IYjhXhtLcG3zMpLraEY1oD8a7n+SZ5BGx5KSPVRo/RSQGwqJsdCxzmVoKJqTNpMYQuiGRh+hIXq6AP9R6A8oEuZXbmfGa47Ww+rsn5OEaEzJqFUa7K5UVl4oVYnJQCW3riMMwxAnjXH0LYiFdxmvGaIKh28QOGxq5KkBKmL8136spkaDZsc2vSdQ3rbXbCQoQEuBsuvzAFVML8IUlKo7aM+ESVRyidWbofC/wJKAgkqrjdmkMsWiI5bre7YtNiMiJ5PkcHEelDbXJOzm31OWlXOb2oCg1DScpI5CSnIj04WBHgOM5pS/OYmVEW4MRvaD7Mi09EbuKFKNUCrVGFk8rEYufcRlDSBMsSbecyr7UWrbC/GQX11m27mLesQ+so84awLGUksoclI80bj5mWzSXnZQBQGpnn8Z4mKXbgPijN440ZnbiQqJttxn1GMY4TDRCwtYj02Yd9OSY6L1nnlGg2S/OpOUX6HC+F2DMCCbB93bAWBWPHY7Y/pFQVLVGRHkHMcbWNTuJHsjilqTJxxB/orFychW1q7h2GTovvcSwFIb4YK5oJaKmJiXiIOf+Gm0AO6mB1oGA5KoanqhzCRUWiMlBqkSj7SHQSEtGACI4BgqBZrPuoaAFw7M+JZlyf+a5i+Ajsz8s3E+KWBx/CGoeB6ohUKJFFDr1L2ZXEzPhuAqVGBKSYHp9ZhKhV+iS3OJKvREjtWUS0P3FOYl7rMLBlwmTYyoZehFq7mUO4GIs4XLTdRy9CTQkAybjcksscQoyLsi3PhepwpSknbU/7YtJcI5Y/yRokU6jHw5aVnIpFRrzKIZVMMBYJyuJi9+kdmJ0szHqek4ciM0yTGAvDKvMQ84m1r5it1CIYrkV/4slQBCGClnNJiTeIRYEEpGk+82DFwWm6Dwt8ISzzBlvPISRiNQVGGB56CLQrYDgv+7EIQNYCWmrrXCSa69DbRDORvsprmh/5vpDKd8x71CjnsaX7gm0OVtzzZ/qCeM+fgFJmesvxVyakhCipzjaYArS9WsiJWUafe7gepU9LKfUGsdifgLn+kMpzVoHQ+W0Z7R2sGN68AbzlC6LAG0SFx9dq41YtdWWDaSVilX57G0ExJa5Z6Avh7UACZhsBJX2Ot87HsJ7Bg1X141Mxz+1VB5TZrrZZngPInFqa5w9hiT+EsqhLCtES6+gNJtUeXbgw77NibQRpyrwAKTPikRtIUGtyl2GVvpAgVh6q5nu8qJ32pJlHvqyuwYp7/obM+ER1WuTRUQZIrSTpNtR+bKEviOVGPCrcbS8pRJIMq/QlOivPDixs0/atV6IkzzHKed0+LPcG8Y5IP8aJlViIjSfaTH9IYd5TVWPmEesx7sgXX2D9q68jZ/TvlZbIlhIUMlJTQmo/5gsi1xcyr5IixwCCEy1J1LPW1u+U/gotgLxAIrL8CepSIZb0iYFYaDkLLx2ND15+FYc/32WFHvvP0JNNP2JXuATh2+9U10SUQEdaSjcCyPEnoEgPtDkGCGipW6Xv8qKIVzqBBGR0cKlA2+favKoils+KitES45afjNpcYrehGHlo3LEDa59/EW+PvEzZJKUSS0sqDOo+dZWU5wuhVPOjQvNjJYOEx6fafLesgysdapxzi88uSB2Jhmeew6FPtsWC1uZdp0Skd/OxY9iRm4fCsTerjExJUWJiblKLL83mUSCQgCxfUBW2Z+v+dq900iPSZyguuHEcti/ORVMnF+eCjXWXiVgHfbNxI1Y9MR0LLhqhtDTX7W3NRUJIahKLDpnyjfF/buRKJzspBXVTnsCBDRusS3W5fUZEZPamxu+wdWEO8q67vjWaULICtL2afRg6qdG8P47Bx9lv4vhZ/mV9VkSEEOu9DWtQNfkRZA0ZrhyUdk6gBM3CNt/RJLOGJKFy0sNqjHWOs2l3GxEBcWzffmyen43CcbdgwYhRyEwchszBw1S7cOx4bMzIxLG9+6R7t9XdTsSKjP/KnmhsxIlDh9By/Lj1U7e3/6dEuh1tBxP+SqQD4fxfPv0H3zHo2TVdVFgAAAAASUVORK5CYII=;dashed=1;fontFamily=Helvetica;fontSize=12;fontColor=#000000;align=center;strokeColor=#000000;fillColor=#ffffff;html=1;" vertex="1" parent="1">
          <mxGeometry x="615" y="-65.25" width="36.25" height="36.25" as="geometry" />
        </mxCell>
        <mxCell id="mggX9JK2n9Wl0W4keAl1-9" value="" style="rounded=1;whiteSpace=wrap;html=1;rotation=-90;dashed=1;" vertex="1" parent="1">
          <mxGeometry x="351.25" y="-126.25" width="111.25" height="63.75" as="geometry" />
        </mxCell>
        <mxCell id="mggX9JK2n9Wl0W4keAl1-10" value="" style="aspect=fixed;html=1;points=[];align=center;image;fontSize=12;image=img/lib/azure2/compute/Kubernetes_Services.svg;" vertex="1" parent="1">
          <mxGeometry x="443.42" y="-24.32" width="45.33" height="40" as="geometry" />
        </mxCell>
        <mxCell id="mggX9JK2n9Wl0W4keAl1-14" value="" style="shape=image;verticalLabelPosition=bottom;labelBackgroundColor=#ffffff;verticalAlign=top;aspect=fixed;imageAspect=0;image=data:image/png,iVBORw0KGgoAAAANSUhEUgAAADIAAAAyCAYAAAAeP4ixAAAEzUlEQVRoBe1az08bRxTOv9WoB65pwY56SavEySESFZFyTm5NW9kiCmkt2rQYs4td/INYpVLbqJeQpFWj4B9pKqEekwA5QCExIPBusb32V32ztb2/As7QGGN5pCfwzJvZ9+17M/PNvjnxTuQRekFO9AIIYnABORnN4qRS6G6JZl1R5ALybnQBA0oeA2oOA0qXibApD9rojKQmEHqCCiM/LmIitwzl8QtM5le6SmhTJL8ibKSttLkBqAVEKQgPRPIvoFcMGHVgz6h3ldAmrWIIMIwWToHXAiFqdujWYtTrIloOBMJwoidY6rU6Stv/YOdVCbubmkN0s35LR62DyPeMGqKFFRE9+3rECqS0rSP5yS+4NXwb34zY5dtLGVEfv/ozttZ3OuZAKSC7RQ3jF1O47p9BcFBxyBRu+BMY+zCBv5+/7HIgm5rwRHBQxbVTEy4JDU7jy0DqOAFRXCAIrA/kEIEoN0eaodX3yCHevXdXOY8UNXx1MY0b/qSYD5wTVhnzpzB2JoG1pxveT30LtVJASls64lfvIHwuLVYnrlBWCZ+dRWTkB6wvF9+Cyd5DSgHhjs3Nbu3ZhlhiuV9YZfXphgBR1iuo1zvDa6SAeL+To62VAsK3XK0YqJYNVPaqnsJ2qzdqRg3Vsrcux2AbdWSLFJA9vYLcnb8wH8vh/nd5mzyYKeCuuoDfbz8BORkLDVxeXMWDRAH3YlmbPvuzjm3UkQUjBaS0qWPi8vcI+VWETitu8akIn09ifcmc7PTcb6nHGP1ARdDn1mcd26hDz8gUKSA7xRK+Hp7FqC+Oz9+fcsl13wy+OJvE2jOTNDJ05mNZBIcUhIamXfqsY9u9eE6Ea8eA8AxC+k7m2w5pJBCGEL1H4M4+rAudVsGwpPdkipRH+kD6Hjk42KRCq4cmO5ffuf+WUi7BdgkO7bf82nXZN+hTj2b55YaY54Y4nRMrDVcbq5gb4h+2DXFpcRW/Jgq4H8/bdNmPdWyjTkc3RFIPo0rKYdIUz7+voSieumKcI6AoB0+9zmtITXbS+O2NXUHd10jhl17ZxEnjyeT5QY+URVB/hz7r2EZuRl16nEcAnmc4lnN88cznL4UNjY+AUkAaB6vxwCzCgSTC59N2OZe2HazIhB9m/kT4QhrhgEOXfVl3IYWHmSeCVdOfBBG5NCcOb67xA0nw2Tzc0RYWKSD8QPcmR11SlLvKAj57LwryMOuxmP+zjm3zarZJUcjTbn6UAI/NTn3+5jGbNtAWeSAd4FoMJ3qCRju5GX+T55HvkS71gXSCNPY9clCix5pWaHmkvY/YrfOI2vZ5hEtsOGBOdO85ov4Pc+QN0wrczXm+//RUBKO+mCMNoYg6tpHyUJeFn5dunpkRKYrg4JSrD1Ma44ddtVqJnox4K9ZkTyPRE7vSSvRwHyE3i1yew62P7Ykh9mUd26hDXRZuuLErP4mkEce0PkP0Gc6IZFPjA4fUPtJO6o0bVWPXNXfqsljzd4rOVJ0GUVfUUNbLzU9IJI8cw0zv6Y70nibqyRZoC0vbQHomGco8tlZmepqp6VpXCW2ibZHcfslQ64WBrHlhgNnTbhJGy0R2ef8LAyLxPvlI3H44Flc4Ju23mpo3Hxo3CHrmUk0D0HH76/LIcQPQsPdfHtFzSMz5KD8AAAAASUVORK5CYII=;" vertex="1" parent="1">
          <mxGeometry x="385" y="-140" width="40" height="40" as="geometry" />
        </mxCell>
        <mxCell id="mggX9JK2n9Wl0W4keAl1-15" value="" style="shape=image;verticalLabelPosition=bottom;labelBackgroundColor=#ffffff;verticalAlign=top;aspect=fixed;imageAspect=0;image=data:image/png,iVBORw0KGgoAAAANSUhEUgAAADIAAAAyCAYAAAAeP4ixAAAEzUlEQVRoBe1az08bRxTOv9WoB65pwY56SavEySESFZFyTm5NW9kiCmkt2rQYs4td/INYpVLbqJeQpFWj4B9pKqEekwA5QCExIPBusb32V32ztb2/As7QGGN5pCfwzJvZ9+17M/PNvjnxTuQRekFO9AIIYnABORnN4qRS6G6JZl1R5ALybnQBA0oeA2oOA0qXibApD9rojKQmEHqCCiM/LmIitwzl8QtM5le6SmhTJL8ibKSttLkBqAVEKQgPRPIvoFcMGHVgz6h3ldAmrWIIMIwWToHXAiFqdujWYtTrIloOBMJwoidY6rU6Stv/YOdVCbubmkN0s35LR62DyPeMGqKFFRE9+3rECqS0rSP5yS+4NXwb34zY5dtLGVEfv/ozttZ3OuZAKSC7RQ3jF1O47p9BcFBxyBRu+BMY+zCBv5+/7HIgm5rwRHBQxbVTEy4JDU7jy0DqOAFRXCAIrA/kEIEoN0eaodX3yCHevXdXOY8UNXx1MY0b/qSYD5wTVhnzpzB2JoG1pxveT30LtVJASls64lfvIHwuLVYnrlBWCZ+dRWTkB6wvF9+Cyd5DSgHhjs3Nbu3ZhlhiuV9YZfXphgBR1iuo1zvDa6SAeL+To62VAsK3XK0YqJYNVPaqnsJ2qzdqRg3Vsrcux2AbdWSLFJA9vYLcnb8wH8vh/nd5mzyYKeCuuoDfbz8BORkLDVxeXMWDRAH3YlmbPvuzjm3UkQUjBaS0qWPi8vcI+VWETitu8akIn09ifcmc7PTcb6nHGP1ARdDn1mcd26hDz8gUKSA7xRK+Hp7FqC+Oz9+fcsl13wy+OJvE2jOTNDJ05mNZBIcUhIamXfqsY9u9eE6Ea8eA8AxC+k7m2w5pJBCGEL1H4M4+rAudVsGwpPdkipRH+kD6Hjk42KRCq4cmO5ffuf+WUi7BdgkO7bf82nXZN+hTj2b55YaY54Y4nRMrDVcbq5gb4h+2DXFpcRW/Jgq4H8/bdNmPdWyjTkc3RFIPo0rKYdIUz7+voSieumKcI6AoB0+9zmtITXbS+O2NXUHd10jhl17ZxEnjyeT5QY+URVB/hz7r2EZuRl16nEcAnmc4lnN88cznL4UNjY+AUkAaB6vxwCzCgSTC59N2OZe2HazIhB9m/kT4QhrhgEOXfVl3IYWHmSeCVdOfBBG5NCcOb67xA0nw2Tzc0RYWKSD8QPcmR11SlLvKAj57LwryMOuxmP+zjm3zarZJUcjTbn6UAI/NTn3+5jGbNtAWeSAd4FoMJ3qCRju5GX+T55HvkS71gXSCNPY9clCix5pWaHmkvY/YrfOI2vZ5hEtsOGBOdO85ov4Pc+QN0wrczXm+//RUBKO+mCMNoYg6tpHyUJeFn5dunpkRKYrg4JSrD1Ma44ddtVqJnox4K9ZkTyPRE7vSSvRwHyE3i1yew62P7Ykh9mUd26hDXRZuuLErP4mkEce0PkP0Gc6IZFPjA4fUPtJO6o0bVWPXNXfqsljzd4rOVJ0GUVfUUNbLzU9IJI8cw0zv6Y70nibqyRZoC0vbQHomGco8tlZmepqp6VpXCW2ibZHcfslQ64WBrHlhgNnTbhJGy0R2ef8LAyLxPvlI3H44Flc4Ju23mpo3Hxo3CHrmUk0D0HH76/LIcQPQsPdfHtFzSMz5KD8AAAAASUVORK5CYII=;" vertex="1" parent="1">
          <mxGeometry x="385" y="-90" width="40" height="40" as="geometry" />
        </mxCell>
        <mxCell id="mggX9JK2n9Wl0W4keAl1-16" value="" style="rounded=1;whiteSpace=wrap;html=1;rotation=-90;dashed=1;" vertex="1" parent="1">
          <mxGeometry x="420" y="-125" width="112.5" height="62.5" as="geometry" />
        </mxCell>
        <mxCell id="mggX9JK2n9Wl0W4keAl1-17" value="" style="shape=image;verticalLabelPosition=bottom;labelBackgroundColor=#ffffff;verticalAlign=top;aspect=fixed;imageAspect=0;image=data:image/png,iVBORw0KGgoAAAANSUhEUgAAADIAAAAyCAYAAAAeP4ixAAAEzUlEQVRoBe1az08bRxTOv9WoB65pwY56SavEySESFZFyTm5NW9kiCmkt2rQYs4td/INYpVLbqJeQpFWj4B9pKqEekwA5QCExIPBusb32V32ztb2/As7QGGN5pCfwzJvZ9+17M/PNvjnxTuQRekFO9AIIYnABORnN4qRS6G6JZl1R5ALybnQBA0oeA2oOA0qXibApD9rojKQmEHqCCiM/LmIitwzl8QtM5le6SmhTJL8ibKSttLkBqAVEKQgPRPIvoFcMGHVgz6h3ldAmrWIIMIwWToHXAiFqdujWYtTrIloOBMJwoidY6rU6Stv/YOdVCbubmkN0s35LR62DyPeMGqKFFRE9+3rECqS0rSP5yS+4NXwb34zY5dtLGVEfv/ozttZ3OuZAKSC7RQ3jF1O47p9BcFBxyBRu+BMY+zCBv5+/7HIgm5rwRHBQxbVTEy4JDU7jy0DqOAFRXCAIrA/kEIEoN0eaodX3yCHevXdXOY8UNXx1MY0b/qSYD5wTVhnzpzB2JoG1pxveT30LtVJASls64lfvIHwuLVYnrlBWCZ+dRWTkB6wvF9+Cyd5DSgHhjs3Nbu3ZhlhiuV9YZfXphgBR1iuo1zvDa6SAeL+To62VAsK3XK0YqJYNVPaqnsJ2qzdqRg3Vsrcux2AbdWSLFJA9vYLcnb8wH8vh/nd5mzyYKeCuuoDfbz8BORkLDVxeXMWDRAH3YlmbPvuzjm3UkQUjBaS0qWPi8vcI+VWETitu8akIn09ifcmc7PTcb6nHGP1ARdDn1mcd26hDz8gUKSA7xRK+Hp7FqC+Oz9+fcsl13wy+OJvE2jOTNDJ05mNZBIcUhIamXfqsY9u9eE6Ea8eA8AxC+k7m2w5pJBCGEL1H4M4+rAudVsGwpPdkipRH+kD6Hjk42KRCq4cmO5ffuf+WUi7BdgkO7bf82nXZN+hTj2b55YaY54Y4nRMrDVcbq5gb4h+2DXFpcRW/Jgq4H8/bdNmPdWyjTkc3RFIPo0rKYdIUz7+voSieumKcI6AoB0+9zmtITXbS+O2NXUHd10jhl17ZxEnjyeT5QY+URVB/hz7r2EZuRl16nEcAnmc4lnN88cznL4UNjY+AUkAaB6vxwCzCgSTC59N2OZe2HazIhB9m/kT4QhrhgEOXfVl3IYWHmSeCVdOfBBG5NCcOb67xA0nw2Tzc0RYWKSD8QPcmR11SlLvKAj57LwryMOuxmP+zjm3zarZJUcjTbn6UAI/NTn3+5jGbNtAWeSAd4FoMJ3qCRju5GX+T55HvkS71gXSCNPY9clCix5pWaHmkvY/YrfOI2vZ5hEtsOGBOdO85ov4Pc+QN0wrczXm+//RUBKO+mCMNoYg6tpHyUJeFn5dunpkRKYrg4JSrD1Ma44ddtVqJnox4K9ZkTyPRE7vSSvRwHyE3i1yew62P7Ykh9mUd26hDXRZuuLErP4mkEce0PkP0Gc6IZFPjA4fUPtJO6o0bVWPXNXfqsljzd4rOVJ0GUVfUUNbLzU9IJI8cw0zv6Y70nibqyRZoC0vbQHomGco8tlZmepqp6VpXCW2ibZHcfslQ64WBrHlhgNnTbhJGy0R2ef8LAyLxPvlI3H44Flc4Ju23mpo3Hxo3CHrmUk0D0HH76/LIcQPQsPdfHtFzSMz5KD8AAAAASUVORK5CYII=;" vertex="1" parent="1">
          <mxGeometry x="455" y="-140" width="40" height="40" as="geometry" />
        </mxCell>
        <mxCell id="mggX9JK2n9Wl0W4keAl1-18" value="" style="shape=image;verticalLabelPosition=bottom;labelBackgroundColor=#ffffff;verticalAlign=top;aspect=fixed;imageAspect=0;image=data:image/png,iVBORw0KGgoAAAANSUhEUgAAADIAAAAyCAYAAAAeP4ixAAAEzUlEQVRoBe1az08bRxTOv9WoB65pwY56SavEySESFZFyTm5NW9kiCmkt2rQYs4td/INYpVLbqJeQpFWj4B9pKqEekwA5QCExIPBusb32V32ztb2/As7QGGN5pCfwzJvZ9+17M/PNvjnxTuQRekFO9AIIYnABORnN4qRS6G6JZl1R5ALybnQBA0oeA2oOA0qXibApD9rojKQmEHqCCiM/LmIitwzl8QtM5le6SmhTJL8ibKSttLkBqAVEKQgPRPIvoFcMGHVgz6h3ldAmrWIIMIwWToHXAiFqdujWYtTrIloOBMJwoidY6rU6Stv/YOdVCbubmkN0s35LR62DyPeMGqKFFRE9+3rECqS0rSP5yS+4NXwb34zY5dtLGVEfv/ozttZ3OuZAKSC7RQ3jF1O47p9BcFBxyBRu+BMY+zCBv5+/7HIgm5rwRHBQxbVTEy4JDU7jy0DqOAFRXCAIrA/kEIEoN0eaodX3yCHevXdXOY8UNXx1MY0b/qSYD5wTVhnzpzB2JoG1pxveT30LtVJASls64lfvIHwuLVYnrlBWCZ+dRWTkB6wvF9+Cyd5DSgHhjs3Nbu3ZhlhiuV9YZfXphgBR1iuo1zvDa6SAeL+To62VAsK3XK0YqJYNVPaqnsJ2qzdqRg3Vsrcux2AbdWSLFJA9vYLcnb8wH8vh/nd5mzyYKeCuuoDfbz8BORkLDVxeXMWDRAH3YlmbPvuzjm3UkQUjBaS0qWPi8vcI+VWETitu8akIn09ifcmc7PTcb6nHGP1ARdDn1mcd26hDz8gUKSA7xRK+Hp7FqC+Oz9+fcsl13wy+OJvE2jOTNDJ05mNZBIcUhIamXfqsY9u9eE6Ea8eA8AxC+k7m2w5pJBCGEL1H4M4+rAudVsGwpPdkipRH+kD6Hjk42KRCq4cmO5ffuf+WUi7BdgkO7bf82nXZN+hTj2b55YaY54Y4nRMrDVcbq5gb4h+2DXFpcRW/Jgq4H8/bdNmPdWyjTkc3RFIPo0rKYdIUz7+voSieumKcI6AoB0+9zmtITXbS+O2NXUHd10jhl17ZxEnjyeT5QY+URVB/hz7r2EZuRl16nEcAnmc4lnN88cznL4UNjY+AUkAaB6vxwCzCgSTC59N2OZe2HazIhB9m/kT4QhrhgEOXfVl3IYWHmSeCVdOfBBG5NCcOb67xA0nw2Tzc0RYWKSD8QPcmR11SlLvKAj57LwryMOuxmP+zjm3zarZJUcjTbn6UAI/NTn3+5jGbNtAWeSAd4FoMJ3qCRju5GX+T55HvkS71gXSCNPY9clCix5pWaHmkvY/YrfOI2vZ5hEtsOGBOdO85ov4Pc+QN0wrczXm+//RUBKO+mCMNoYg6tpHyUJeFn5dunpkRKYrg4JSrD1Ma44ddtVqJnox4K9ZkTyPRE7vSSvRwHyE3i1yew62P7Ykh9mUd26hDXRZuuLErP4mkEce0PkP0Gc6IZFPjA4fUPtJO6o0bVWPXNXfqsljzd4rOVJ0GUVfUUNbLzU9IJI8cw0zv6Y70nibqyRZoC0vbQHomGco8tlZmepqp6VpXCW2ibZHcfslQ64WBrHlhgNnTbhJGy0R2ef8LAyLxPvlI3H44Flc4Ju23mpo3Hxo3CHrmUk0D0HH76/LIcQPQsPdfHtFzSMz5KD8AAAAASUVORK5CYII=;" vertex="1" parent="1">
          <mxGeometry x="455" y="-90" width="40" height="40" as="geometry" />
        </mxCell>
        <mxCell id="mggX9JK2n9Wl0W4keAl1-19" value="&lt;span style=&quot;font-size: 10px&quot;&gt;&lt;br&gt;&lt;/span&gt;" style="rounded=1;whiteSpace=wrap;html=1;rotation=-90;dashed=1;" vertex="1" parent="1">
          <mxGeometry x="488.75" y="-122.5" width="116.25" height="61.25" as="geometry" />
        </mxCell>
        <mxCell id="mggX9JK2n9Wl0W4keAl1-20" value="" style="shape=image;verticalLabelPosition=bottom;labelBackgroundColor=#ffffff;verticalAlign=top;aspect=fixed;imageAspect=0;image=data:image/png,iVBORw0KGgoAAAANSUhEUgAAADIAAAAyCAYAAAAeP4ixAAAEzUlEQVRoBe1az08bRxTOv9WoB65pwY56SavEySESFZFyTm5NW9kiCmkt2rQYs4td/INYpVLbqJeQpFWj4B9pKqEekwA5QCExIPBusb32V32ztb2/As7QGGN5pCfwzJvZ9+17M/PNvjnxTuQRekFO9AIIYnABORnN4qRS6G6JZl1R5ALybnQBA0oeA2oOA0qXibApD9rojKQmEHqCCiM/LmIitwzl8QtM5le6SmhTJL8ibKSttLkBqAVEKQgPRPIvoFcMGHVgz6h3ldAmrWIIMIwWToHXAiFqdujWYtTrIloOBMJwoidY6rU6Stv/YOdVCbubmkN0s35LR62DyPeMGqKFFRE9+3rECqS0rSP5yS+4NXwb34zY5dtLGVEfv/ozttZ3OuZAKSC7RQ3jF1O47p9BcFBxyBRu+BMY+zCBv5+/7HIgm5rwRHBQxbVTEy4JDU7jy0DqOAFRXCAIrA/kEIEoN0eaodX3yCHevXdXOY8UNXx1MY0b/qSYD5wTVhnzpzB2JoG1pxveT30LtVJASls64lfvIHwuLVYnrlBWCZ+dRWTkB6wvF9+Cyd5DSgHhjs3Nbu3ZhlhiuV9YZfXphgBR1iuo1zvDa6SAeL+To62VAsK3XK0YqJYNVPaqnsJ2qzdqRg3Vsrcux2AbdWSLFJA9vYLcnb8wH8vh/nd5mzyYKeCuuoDfbz8BORkLDVxeXMWDRAH3YlmbPvuzjm3UkQUjBaS0qWPi8vcI+VWETitu8akIn09ifcmc7PTcb6nHGP1ARdDn1mcd26hDz8gUKSA7xRK+Hp7FqC+Oz9+fcsl13wy+OJvE2jOTNDJ05mNZBIcUhIamXfqsY9u9eE6Ea8eA8AxC+k7m2w5pJBCGEL1H4M4+rAudVsGwpPdkipRH+kD6Hjk42KRCq4cmO5ffuf+WUi7BdgkO7bf82nXZN+hTj2b55YaY54Y4nRMrDVcbq5gb4h+2DXFpcRW/Jgq4H8/bdNmPdWyjTkc3RFIPo0rKYdIUz7+voSieumKcI6AoB0+9zmtITXbS+O2NXUHd10jhl17ZxEnjyeT5QY+URVB/hz7r2EZuRl16nEcAnmc4lnN88cznL4UNjY+AUkAaB6vxwCzCgSTC59N2OZe2HazIhB9m/kT4QhrhgEOXfVl3IYWHmSeCVdOfBBG5NCcOb67xA0nw2Tzc0RYWKSD8QPcmR11SlLvKAj57LwryMOuxmP+zjm3zarZJUcjTbn6UAI/NTn3+5jGbNtAWeSAd4FoMJ3qCRju5GX+T55HvkS71gXSCNPY9clCix5pWaHmkvY/YrfOI2vZ5hEtsOGBOdO85ov4Pc+QN0wrczXm+//RUBKO+mCMNoYg6tpHyUJeFn5dunpkRKYrg4JSrD1Ma44ddtVqJnox4K9ZkTyPRE7vSSvRwHyE3i1yew62P7Ykh9mUd26hDXRZuuLErP4mkEce0PkP0Gc6IZFPjA4fUPtJO6o0bVWPXNXfqsljzd4rOVJ0GUVfUUNbLzU9IJI8cw0zv6Y70nibqyRZoC0vbQHomGco8tlZmepqp6VpXCW2ibZHcfslQ64WBrHlhgNnTbhJGy0R2ef8LAyLxPvlI3H44Flc4Ju23mpo3Hxo3CHrmUk0D0HH76/LIcQPQsPdfHtFzSMz5KD8AAAAASUVORK5CYII=;" vertex="1" parent="1">
          <mxGeometry x="530" y="-140" width="40" height="40" as="geometry" />
        </mxCell>
        <mxCell id="mggX9JK2n9Wl0W4keAl1-21" value="" style="shape=image;verticalLabelPosition=bottom;labelBackgroundColor=#ffffff;verticalAlign=top;aspect=fixed;imageAspect=0;image=data:image/png,iVBORw0KGgoAAAANSUhEUgAAADIAAAAyCAYAAAAeP4ixAAAEzUlEQVRoBe1az08bRxTOv9WoB65pwY56SavEySESFZFyTm5NW9kiCmkt2rQYs4td/INYpVLbqJeQpFWj4B9pKqEekwA5QCExIPBusb32V32ztb2/As7QGGN5pCfwzJvZ9+17M/PNvjnxTuQRekFO9AIIYnABORnN4qRS6G6JZl1R5ALybnQBA0oeA2oOA0qXibApD9rojKQmEHqCCiM/LmIitwzl8QtM5le6SmhTJL8ibKSttLkBqAVEKQgPRPIvoFcMGHVgz6h3ldAmrWIIMIwWToHXAiFqdujWYtTrIloOBMJwoidY6rU6Stv/YOdVCbubmkN0s35LR62DyPeMGqKFFRE9+3rECqS0rSP5yS+4NXwb34zY5dtLGVEfv/ozttZ3OuZAKSC7RQ3jF1O47p9BcFBxyBRu+BMY+zCBv5+/7HIgm5rwRHBQxbVTEy4JDU7jy0DqOAFRXCAIrA/kEIEoN0eaodX3yCHevXdXOY8UNXx1MY0b/qSYD5wTVhnzpzB2JoG1pxveT30LtVJASls64lfvIHwuLVYnrlBWCZ+dRWTkB6wvF9+Cyd5DSgHhjs3Nbu3ZhlhiuV9YZfXphgBR1iuo1zvDa6SAeL+To62VAsK3XK0YqJYNVPaqnsJ2qzdqRg3Vsrcux2AbdWSLFJA9vYLcnb8wH8vh/nd5mzyYKeCuuoDfbz8BORkLDVxeXMWDRAH3YlmbPvuzjm3UkQUjBaS0qWPi8vcI+VWETitu8akIn09ifcmc7PTcb6nHGP1ARdDn1mcd26hDz8gUKSA7xRK+Hp7FqC+Oz9+fcsl13wy+OJvE2jOTNDJ05mNZBIcUhIamXfqsY9u9eE6Ea8eA8AxC+k7m2w5pJBCGEL1H4M4+rAudVsGwpPdkipRH+kD6Hjk42KRCq4cmO5ffuf+WUi7BdgkO7bf82nXZN+hTj2b55YaY54Y4nRMrDVcbq5gb4h+2DXFpcRW/Jgq4H8/bdNmPdWyjTkc3RFIPo0rKYdIUz7+voSieumKcI6AoB0+9zmtITXbS+O2NXUHd10jhl17ZxEnjyeT5QY+URVB/hz7r2EZuRl16nEcAnmc4lnN88cznL4UNjY+AUkAaB6vxwCzCgSTC59N2OZe2HazIhB9m/kT4QhrhgEOXfVl3IYWHmSeCVdOfBBG5NCcOb67xA0nw2Tzc0RYWKSD8QPcmR11SlLvKAj57LwryMOuxmP+zjm3zarZJUcjTbn6UAI/NTn3+5jGbNtAWeSAd4FoMJ3qCRju5GX+T55HvkS71gXSCNPY9clCix5pWaHmkvY/YrfOI2vZ5hEtsOGBOdO85ov4Pc+QN0wrczXm+//RUBKO+mCMNoYg6tpHyUJeFn5dunpkRKYrg4JSrD1Ma44ddtVqJnox4K9ZkTyPRE7vSSvRwHyE3i1yew62P7Ykh9mUd26hDXRZuuLErP4mkEce0PkP0Gc6IZFPjA4fUPtJO6o0bVWPXNXfqsljzd4rOVJ0GUVfUUNbLzU9IJI8cw0zv6Y70nibqyRZoC0vbQHomGco8tlZmepqp6VpXCW2ibZHcfslQ64WBrHlhgNnTbhJGy0R2ef8LAyLxPvlI3H44Flc4Ju23mpo3Hxo3CHrmUk0D0HH76/LIcQPQsPdfHtFzSMz5KD8AAAAASUVORK5CYII=;" vertex="1" parent="1">
          <mxGeometry x="530" y="-90" width="40" height="40" as="geometry" />
        </mxCell>
        <mxCell id="mggX9JK2n9Wl0W4keAl1-36" value="&lt;br style=&quot;font-size: 10px&quot;&gt;&lt;br&gt;&lt;br&gt;Platform Security&lt;br&gt;Namespace" style="whiteSpace=wrap;html=1;aspect=fixed;dashed=1;fontFamily=Tahoma;fontSize=10;verticalAlign=middle;" vertex="1" parent="1">
          <mxGeometry x="595" y="-155" width="80" height="80" as="geometry" />
        </mxCell>
        <mxCell id="mggX9JK2n9Wl0W4keAl1-38" value="" style="shape=image;verticalLabelPosition=bottom;labelBackgroundColor=#ffffff;verticalAlign=top;aspect=fixed;imageAspect=0;image=data:image/png,iVBORw0KGgoAAAANSUhEUgAAAEwAAAAWCAYAAABqgnq6AAAHKUlEQVRYCe1XfVTOVxz/7Zy255dtNmaOk9kO4ylNPW+VtwozQkNC8hKTirwWKSRh3iIlbBymgxxnzrxMcXCY2Zy9MLZmyhOVFJWUkJZePzvf++v38/ye5/dE44/tnO459/nd+73ft/u533u/34eDQmsoSgDSXwMuccAFDrjIAekcEOEB9AkBhgQDsUlAfb2CtJz0pLoa+YVFcuJzzkpKy3C7qLhJ7tL75Ux/+cNHTfLV1NYi/04h63V11v2uq6tj+mpqahX1cTJqQz0abi0CjNxTsAiwC68AZ3gg9BPAPRgYHAiMmQNU18jETScH0k5gVMhsfDTQG6puzujrOx4B4VG4dOWqKZvFmDa2Y/8BjAqZg3ece6KVWoNhn03H4rhE5BXctuD3nxUO3tEFyzYmWayZEjJvZDM/SF+BwgEeOXkGvtPnwuDty/i0Q3zgNzMMJ8+dN1UDOWAlu4BSDsjhgKzGfp0DrrwKXFYBCwYAfRsBmzAfUDgFY3Yu26DKXgu+uwG8gwG8vU74OujRuocrotcnypwQJwSmy/Ax4CVZPXgHnaTnQ8/BSM+4JrKz77iZYeAdXRETv0lGN58IgGnAd3WWAdbQ0IDgRTHg1VrBR/KZ/JV812Jl0heSOgmwDTdKkXb9OFC+ASiMl/fbCQD1z6OAgSFChCkARuHc28efGVOpNRg6ORiJX+1mnUCyc/UEAamy12N54hbJCRrcLCiAnVs/8A56dsIhi2Ik2YhVcehg6MvWOvUegPRMoyQ7fvZ8FmGxCZslmtJAjLDX7bUSYPX19ZgcHiUcir0OH/tPkWyS3318xjX6q0PsRkE/A2zx1WLYptdiccZDJVtPadsOAsOmWwUsfkcyVHQ69lpsSt7zVK5xRO9RL+aEDm2c3HDT5IqFRi+HykGPNxwN2HXgkIVsdt4tOA70Zofh7jseVU+eMJ4XAezYd+cEQNRaBIRF4nHl3zK79I5FrtkgRJxai9+vZoJLyi4Ff/Y2bH8swQpjiUzAYrJ1HzBUGbCHFRUwDPNlYT08cIaFqEgoKCpGe30fFi0Rq9czsjEnF286GmDroEdME2/RkROnwas1LAKvGLOY7L8BTEwkY0PnMT+cvUaAkpNSq66pgcZrJDuoZRs3g+NTM8GnGWF7ruiFAKO3ix53uorfHD+pZFuiBUVGs2sUEB7JaL/9+RdUai3aOvVE8b1Sic98cP/BA7R1cmNXSHyzRMBWJm01Z5fNTa9k4d0S0PPhPnoCAyJu204Zr/lkxpLlLMraaXuB49OugT+a0XzAzLLk9dw8qLo6ge/mLLtq5sZpHkVh7uiCaZHRbJlCnYBu59wTVVXCVVOSo016jp3INhm2fA1jGRU8i+mKWhuvJCLRcvML2IHadnMGlSsVjyuh7ufFIuzLvfslPqXB1Igl7JmhgOAILD61EbDM57ySw2YAkXGAST2TnZcPW7WGnUTCzt1KdiXags/XyQC7mE4RpsFbPVyRninPgpJQ48ArYBoDjHRQo3KCEoV9/yFWrxXxnfrhPLPR2tGAO8V3mWx/v8lMV/iKtWxu7UcCrKsTOP5YhhBhp4qw8pmApQA+84D5a4GKSpn+2ro6+ATNYg4YvEc36TxlPdMIo2vYue9AtvHhgaGgVG+tDZo4VQbYlWtGBgQlm+QDBxXFKiorG7O3C/xCwyAWrgtXr2c222l7IysnV1GWiIELo4UIY4BRdO3JQKvUYqwx3rMqxBbitgNzVgGVVYp85365wLIcOT8yaBaycm4q8plfSWKiYpXkqE+YF4GcW/kyWXGT5oARuD5BMxmI7XV9QAUzXV2x0dvlFRDEgKHEcvanX8Ul3CkuQVvnnsymZogPfr78h7RmOgiKWvoUsHfVWWjfOQvt1TnQ63Ix3CNfsQ/S38exzTcsIstUMY0XrdsolBYOOrTp4Yp+fgEW/YPeA9jDLb5hJEcbH0kbdxCKVTp1kvUcOwluI8ch9fRZZsocMCJSMhjgP0UoPNVauHiPlmzSFWS1nVqDzcl7mQ7Tn70Hv2URSjz0z0LJ345unkJCowiz427AjrsOOy4Ldlwe7GwKLXonmxqM8ChEebmpKeUxne6eg0fwPgOFNq/QWSWtx4S5ETIlVFvFJmxBB4O7IEfVdncDwleula64EmCk5MGjCgRGLMHblEUb5YRqXYcuHoORduZ7mS3Tyddpx9HFYxBU0r8KM5+p2KZyRq0BZ2dThI42JVb7ezaPMPHTQjypsv6umBoXx5SJUg4fxcS5C+E+ZhJL4ZTGxe7hF4BVW7aJ7LIv1Ukph1OxND4JVAybNmuAiTzXsnOYbMqho8z+vsOpKCt/IC5b/ZaUCf7OjV0NDwV/Rb+57YnlCPEvQ4h/oUK/h5iwMtRUNw8sq169hIVnAfYSTDSpQvov2STXf2ixBbBmHkYLYC2ANROBZrK3RFgLYM1EoJnsLRH2PwPsH/UL+JBWSQmSAAAAAElFTkSuQmCC;" vertex="1" parent="1">
          <mxGeometry x="605" y="-140" width="60" height="17.37" as="geometry" />
        </mxCell>
        <mxCell id="mggX9JK2n9Wl0W4keAl1-39" value="" style="shape=image;verticalLabelPosition=bottom;labelBackgroundColor=#ffffff;verticalAlign=top;aspect=fixed;imageAspect=0;image=data:image/png,iVBORw0KGgoAAAANSUhEUgAAADYAAAAcCAYAAAAqckyNAAAGiElEQVRYCdWYWUxUZxTHx91oNPFJffJFoyYajbvR+GJYhsXGtDHWPpA0cYkgMAPVFiFdHmiwLVYhUoIFZJGlKgPMAjOAFWoRWRsHhrLJIojMOCPbCIzwb86BuQ4MDBONzXiTm7nfcs49v+8s33dHBAfXxAQwZhl3MMN1h0SOTBsfn0Byng59RrOjaS455hCMLA6J/gvZRc0uabwjo+YFC79RDunVB450uOTYvGCRiVXwliihe2pySYC5jJoX7MqtavheKsOPSZVz6XDJ/nnBom5VwzukBMekCtS3vXRJiNmMcgpMHFwIL4kaBPmxXE6AVcFLUgjPICW+CC+Esf/1R8HmBFg1e8sjIBeeQSpka5wv/R0dHYiPj0dcXBxaWlqcWpA3b95Ar9fDYDBgfHzycEB9OTk5iI2NRXOzc++fFWxiYgLpBU3o7hvCr7fr2GPu/jKIg1Xw+04D08CIU0ZmZ2dDJBLxnZyc7JRMQ0MDtm3bhl27dqGtrY1l+vv7sWLFCixYsACJiYlO6ZkVrOGpEZ9eVKHj+SCuZbwFcw/IhTi4AFnqJqeU37lzRwBLSUmxk7F6xHagsbGRZRYtWoTW1lYeIo+lpqYiISEBXV1dttP5mRwx85oVLDKpEsekcuhNr3E1vVbwmNVrX36vwcDQ6Exddu27d+/agVksFjbQ3d0dhw4dwvHjx6FQKFiWPBQREYGlS5di+fLlCAwMRElJCUimsrISeXl56OnpEd5TV1eHyMhIHDlyhPXcvHmTQ5gm2IE1dZrgI5Hjs0tKOzA3/xx4BOTDO1iBx9pe4QVzPdiCZWRkYHR0FOfOnWNYMnz9+vXTwOVyOVavXi30rVy5EidOnIDRaMSePXu43+p5tVqNtWvXcnguW7ZMkDl69CjPtwP7KaUGPqH3cepyIQwm8wyP5cD9vIyLSURcOcbtI2Aaoy1Ybm4ulEqlYACt7uDgIMjAffv2QSqVYmxsjL23ZMkSEJRGo2Ejh4eHOecoX7OyskA5t3HjRtbl5+cHCt/i4mLOTZpz9uzZ6R5rbDfikxAFxBL1FJh9KFI4elzIh1dQPh43vJgGMrNhC0ZVrby8HAsXLmSD9u7di9OnT0Mmk02rmPX19RyKq1atEnKMwHbv3s1ytEAUugSwYcMG9Pa+jZzMzEzWT4syzWNXUqoZShyocAhGcF5SNX5IqJjJMq1tC5aWlsZjBHL48GGucmQcVbotW7YgPT2dx2trawUwnU7HfTPBaJFI9uDBg8KWQBMpDyksefFYEsC/HSb2lucFBTydAPMMVOLk1yo8NwxbVdj92oKR4ZRjVCCo2tEeR1XO19eXjSQPUR+FFRUPare3t7POmWD37t1jma1bt3I4W1+sUqlA1ZTz1Np5JaWGc8ftvMwpMHf/ydL/u6zeqsLu1xaMPEX5REYfOHAAJtPk10JpaSkbQx4gKNrHFi9ezKtOFZL6CMxaPGgL6ezsxJo1axjuzJkzGBkZ4Xk7duzgPg8Pj8lQ1D01wlcih2egHBRmbz1mLR5q7qcx25uOWSe/KZjTaxTzZDDd5LG+vj7s37+f25T8bm5uWLduHbcp38hAKuebNm0S5GhLoFPI9u3buS8pKYkX8Pr160I479y5kyskvWfz5s28OJxj0bdrIZYUCkaLg1T4PKyAq+IvaTXwlmpARyraoMlTDHdexm06RybItHbeog6tVguJRIKgoCBUV08eoLu7uxEWFgZaaYKhChYVFcVQViUVFRVcJf39/RETEwOz2QwCCQgIEPTQXPJ2aGgo6yI9tKdRONMlevZiAOLAPHgEFTIcnSzoNE+e0JvMiE6vhXdIEVdCjwt5fKyiRaDbK7gQ3tIinAovwEsXOxyLMjVtvDdJo0txOa4cP6fWoKTqGSq0vbBYxtHS9Qr3K7tQVtuDstpuxGTWISz2b0TEPQL9bXAqXM0bOo250iWivatHP/TONulNw2jufIXel3NXx3dW/h6Comd9w0iUtyI2ux5pyiakKhqRItdN3fQ82b411Ue/SfkNSMjRIj5Hhz9KulCl07+HCR9GVDRktqC4qgfSqw85f3wvlsJLWsR5xl/OnEca+IT+Cd+LZfAOLYFPcB6+uvYQyfJGlD/Rw/DqNeY5XX0Y6x1oFU4edO6r0D7Ht789gicVk0AF3Kb2KqqIZyOLEZlUhdwHbWjvGcAsXwoOXvP/Dwlgtq9+0mJA2I1HOBmmxo3sf/Ck2QDziMV2iss//weIunksNSA6gAAAAABJRU5ErkJggg==;rotation=0;" vertex="1" parent="1">
          <mxGeometry x="273.38" y="-106.82000000000001" width="55.24" height="28.64" as="geometry" />
        </mxCell>
        <mxCell id="mggX9JK2n9Wl0W4keAl1-44" value="Service Mesh&lt;br style=&quot;font-size: 10px;&quot;&gt;+&lt;br style=&quot;font-size: 10px;&quot;&gt;Ingress Controller&lt;br style=&quot;font-size: 10px;&quot;&gt;" style="whiteSpace=wrap;html=1;aspect=fixed;dashed=1;fillColor=#dae8fc;strokeColor=#6c8ebf;align=center;verticalAlign=top;fontSize=10;fontStyle=0;fontFamily=Tahoma;" vertex="1" parent="1">
          <mxGeometry x="260" y="-70" width="82" height="82" as="geometry" />
        </mxCell>
        <mxCell id="mggX9JK2n9Wl0W4keAl1-45" value="" style="shape=image;verticalLabelPosition=bottom;labelBackgroundColor=#ffffff;verticalAlign=top;aspect=fixed;imageAspect=0;image=data:image/png,iVBORw0KGgoAAAANSUhEUgAAADYAAAAcCAYAAAAqckyNAAAGiElEQVRYCdWYWUxUZxTHx91oNPFJffJFoyYajbvR+GJYhsXGtDHWPpA0cYkgMAPVFiFdHmiwLVYhUoIFZJGlKgPMAjOAFWoRWRsHhrLJIojMOCPbCIzwb86BuQ4MDBONzXiTm7nfcs49v+8s33dHBAfXxAQwZhl3MMN1h0SOTBsfn0Byng59RrOjaS455hCMLA6J/gvZRc0uabwjo+YFC79RDunVB450uOTYvGCRiVXwliihe2pySYC5jJoX7MqtavheKsOPSZVz6XDJ/nnBom5VwzukBMekCtS3vXRJiNmMcgpMHFwIL4kaBPmxXE6AVcFLUgjPICW+CC+Esf/1R8HmBFg1e8sjIBeeQSpka5wv/R0dHYiPj0dcXBxaWlqcWpA3b95Ar9fDYDBgfHzycEB9OTk5iI2NRXOzc++fFWxiYgLpBU3o7hvCr7fr2GPu/jKIg1Xw+04D08CIU0ZmZ2dDJBLxnZyc7JRMQ0MDtm3bhl27dqGtrY1l+vv7sWLFCixYsACJiYlO6ZkVrOGpEZ9eVKHj+SCuZbwFcw/IhTi4AFnqJqeU37lzRwBLSUmxk7F6xHagsbGRZRYtWoTW1lYeIo+lpqYiISEBXV1dttP5mRwx85oVLDKpEsekcuhNr3E1vVbwmNVrX36vwcDQ6Exddu27d+/agVksFjbQ3d0dhw4dwvHjx6FQKFiWPBQREYGlS5di+fLlCAwMRElJCUimsrISeXl56OnpEd5TV1eHyMhIHDlyhPXcvHmTQ5gm2IE1dZrgI5Hjs0tKOzA3/xx4BOTDO1iBx9pe4QVzPdiCZWRkYHR0FOfOnWNYMnz9+vXTwOVyOVavXi30rVy5EidOnIDRaMSePXu43+p5tVqNtWvXcnguW7ZMkDl69CjPtwP7KaUGPqH3cepyIQwm8wyP5cD9vIyLSURcOcbtI2Aaoy1Ybm4ulEqlYACt7uDgIMjAffv2QSqVYmxsjL23ZMkSEJRGo2Ejh4eHOecoX7OyskA5t3HjRtbl5+cHCt/i4mLOTZpz9uzZ6R5rbDfikxAFxBL1FJh9KFI4elzIh1dQPh43vJgGMrNhC0ZVrby8HAsXLmSD9u7di9OnT0Mmk02rmPX19RyKq1atEnKMwHbv3s1ytEAUugSwYcMG9Pa+jZzMzEzWT4syzWNXUqoZShyocAhGcF5SNX5IqJjJMq1tC5aWlsZjBHL48GGucmQcVbotW7YgPT2dx2trawUwnU7HfTPBaJFI9uDBg8KWQBMpDyksefFYEsC/HSb2lucFBTydAPMMVOLk1yo8NwxbVdj92oKR4ZRjVCCo2tEeR1XO19eXjSQPUR+FFRUPare3t7POmWD37t1jma1bt3I4W1+sUqlA1ZTz1Np5JaWGc8ftvMwpMHf/ydL/u6zeqsLu1xaMPEX5REYfOHAAJtPk10JpaSkbQx4gKNrHFi9ezKtOFZL6CMxaPGgL6ezsxJo1axjuzJkzGBkZ4Xk7duzgPg8Pj8lQ1D01wlcih2egHBRmbz1mLR5q7qcx25uOWSe/KZjTaxTzZDDd5LG+vj7s37+f25T8bm5uWLduHbcp38hAKuebNm0S5GhLoFPI9u3buS8pKYkX8Pr160I479y5kyskvWfz5s28OJxj0bdrIZYUCkaLg1T4PKyAq+IvaTXwlmpARyraoMlTDHdexm06RybItHbeog6tVguJRIKgoCBUV08eoLu7uxEWFgZaaYKhChYVFcVQViUVFRVcJf39/RETEwOz2QwCCQgIEPTQXPJ2aGgo6yI9tKdRONMlevZiAOLAPHgEFTIcnSzoNE+e0JvMiE6vhXdIEVdCjwt5fKyiRaDbK7gQ3tIinAovwEsXOxyLMjVtvDdJo0txOa4cP6fWoKTqGSq0vbBYxtHS9Qr3K7tQVtuDstpuxGTWISz2b0TEPQL9bXAqXM0bOo250iWivatHP/TONulNw2jufIXel3NXx3dW/h6Comd9w0iUtyI2ux5pyiakKhqRItdN3fQ82b411Ue/SfkNSMjRIj5Hhz9KulCl07+HCR9GVDRktqC4qgfSqw85f3wvlsJLWsR5xl/OnEca+IT+Cd+LZfAOLYFPcB6+uvYQyfJGlD/Rw/DqNeY5XX0Y6x1oFU4edO6r0D7Ht789gicVk0AF3Kb2KqqIZyOLEZlUhdwHbWjvGcAsXwoOXvP/Dwlgtq9+0mJA2I1HOBmmxo3sf/Ck2QDziMV2iss//weIunksNSA6gAAAAABJRU5ErkJggg==;rotation=0;" vertex="1" parent="1">
          <mxGeometry x="273.38" y="-18.64" width="55.24" height="28.64" as="geometry" />
        </mxCell>
        <mxCell id="mggX9JK2n9Wl0W4keAl1-5" value="" style="aspect=fixed;html=1;points=[];align=center;image;fontSize=12;image=img/lib/azure2/networking/Virtual_Networks.svg;dashed=1;" vertex="1" parent="1">
          <mxGeometry x="680" y="-190" width="35" height="20.9" as="geometry" />
        </mxCell>
        <mxCell id="mggX9JK2n9Wl0W4keAl1-52" value="&lt;font style=&quot;font-size: 11px&quot;&gt;Prod Vnet&lt;/font&gt;" style="text;html=1;align=center;verticalAlign=middle;resizable=0;points=[];autosize=1;fontSize=10;fontFamily=Tahoma;" vertex="1" parent="1">
          <mxGeometry x="216.09" y="-200" width="60" height="20" as="geometry" />
        </mxCell>
        <mxCell id="mggX9JK2n9Wl0W4keAl1-53" value="&amp;nbsp; &amp;nbsp; &amp;nbsp; &amp;nbsp; &amp;nbsp; &amp;nbsp; &amp;nbsp; &amp;nbsp; &amp;nbsp; &amp;nbsp; &amp;nbsp; &amp;nbsp; &amp;nbsp; &amp;nbsp; &amp;nbsp; &amp;nbsp; &amp;nbsp; &amp;nbsp; &amp;nbsp; &amp;nbsp; &amp;nbsp; &amp;nbsp; &amp;nbsp; &amp;nbsp; &amp;nbsp; &amp;nbsp; &amp;nbsp; &amp;nbsp; &amp;nbsp; &amp;nbsp; &amp;nbsp; &amp;nbsp; &amp;nbsp; &amp;nbsp; &amp;nbsp; &amp;nbsp; &amp;nbsp; &amp;nbsp; &amp;nbsp; &amp;nbsp; &amp;nbsp; &amp;nbsp; &amp;nbsp; &amp;nbsp; &amp;nbsp; &amp;nbsp; &amp;nbsp; &amp;nbsp; &amp;nbsp; &amp;nbsp; &amp;nbsp; &amp;nbsp; &amp;nbsp; &amp;nbsp; &amp;nbsp; &amp;nbsp; &amp;nbsp; &amp;nbsp; &amp;nbsp; &amp;nbsp; &amp;nbsp; &amp;nbsp; &amp;nbsp; &lt;font face=&quot;Tahoma&quot; style=&quot;font-size: 11px&quot;&gt;Subnet&lt;/font&gt;" style="rounded=0;whiteSpace=wrap;html=1;dashed=1;verticalAlign=bottom;" vertex="1" parent="1">
          <mxGeometry x="221.09" y="90" width="490" height="220" as="geometry" />
        </mxCell>
        <mxCell id="mggX9JK2n9Wl0W4keAl1-54" value="&lt;font style=&quot;font-size: 11px&quot; face=&quot;Tahoma&quot;&gt;&lt;b&gt;AKS Cluster&lt;/b&gt;&lt;/font&gt;" style="rounded=0;whiteSpace=wrap;html=1;dashed=1;verticalAlign=bottom;align=left;" vertex="1" parent="1">
          <mxGeometry x="370" y="110" width="320" height="180" as="geometry" />
        </mxCell>
        <mxCell id="mggX9JK2n9Wl0W4keAl1-55" value="" style="rounded=1;whiteSpace=wrap;html=1;rotation=-90;dashed=1;" vertex="1" parent="1">
          <mxGeometry x="351.25" y="150" width="111.25" height="63.75" as="geometry" />
        </mxCell>
        <mxCell id="mggX9JK2n9Wl0W4keAl1-56" value="" style="shape=image;verticalLabelPosition=bottom;labelBackgroundColor=#ffffff;verticalAlign=top;aspect=fixed;imageAspect=0;image=data:image/png,iVBORw0KGgoAAAANSUhEUgAAADIAAAAyCAYAAAAeP4ixAAAEzUlEQVRoBe1az08bRxTOv9WoB65pwY56SavEySESFZFyTm5NW9kiCmkt2rQYs4td/INYpVLbqJeQpFWj4B9pKqEekwA5QCExIPBusb32V32ztb2/As7QGGN5pCfwzJvZ9+17M/PNvjnxTuQRekFO9AIIYnABORnN4qRS6G6JZl1R5ALybnQBA0oeA2oOA0qXibApD9rojKQmEHqCCiM/LmIitwzl8QtM5le6SmhTJL8ibKSttLkBqAVEKQgPRPIvoFcMGHVgz6h3ldAmrWIIMIwWToHXAiFqdujWYtTrIloOBMJwoidY6rU6Stv/YOdVCbubmkN0s35LR62DyPeMGqKFFRE9+3rECqS0rSP5yS+4NXwb34zY5dtLGVEfv/ozttZ3OuZAKSC7RQ3jF1O47p9BcFBxyBRu+BMY+zCBv5+/7HIgm5rwRHBQxbVTEy4JDU7jy0DqOAFRXCAIrA/kEIEoN0eaodX3yCHevXdXOY8UNXx1MY0b/qSYD5wTVhnzpzB2JoG1pxveT30LtVJASls64lfvIHwuLVYnrlBWCZ+dRWTkB6wvF9+Cyd5DSgHhjs3Nbu3ZhlhiuV9YZfXphgBR1iuo1zvDa6SAeL+To62VAsK3XK0YqJYNVPaqnsJ2qzdqRg3Vsrcux2AbdWSLFJA9vYLcnb8wH8vh/nd5mzyYKeCuuoDfbz8BORkLDVxeXMWDRAH3YlmbPvuzjm3UkQUjBaS0qWPi8vcI+VWETitu8akIn09ifcmc7PTcb6nHGP1ARdDn1mcd26hDz8gUKSA7xRK+Hp7FqC+Oz9+fcsl13wy+OJvE2jOTNDJ05mNZBIcUhIamXfqsY9u9eE6Ea8eA8AxC+k7m2w5pJBCGEL1H4M4+rAudVsGwpPdkipRH+kD6Hjk42KRCq4cmO5ffuf+WUi7BdgkO7bf82nXZN+hTj2b55YaY54Y4nRMrDVcbq5gb4h+2DXFpcRW/Jgq4H8/bdNmPdWyjTkc3RFIPo0rKYdIUz7+voSieumKcI6AoB0+9zmtITXbS+O2NXUHd10jhl17ZxEnjyeT5QY+URVB/hz7r2EZuRl16nEcAnmc4lnN88cznL4UNjY+AUkAaB6vxwCzCgSTC59N2OZe2HazIhB9m/kT4QhrhgEOXfVl3IYWHmSeCVdOfBBG5NCcOb67xA0nw2Tzc0RYWKSD8QPcmR11SlLvKAj57LwryMOuxmP+zjm3zarZJUcjTbn6UAI/NTn3+5jGbNtAWeSAd4FoMJ3qCRju5GX+T55HvkS71gXSCNPY9clCix5pWaHmkvY/YrfOI2vZ5hEtsOGBOdO85ov4Pc+QN0wrczXm+//RUBKO+mCMNoYg6tpHyUJeFn5dunpkRKYrg4JSrD1Ma44ddtVqJnox4K9ZkTyPRE7vSSvRwHyE3i1yew62P7Ykh9mUd26hDXRZuuLErP4mkEce0PkP0Gc6IZFPjA4fUPtJO6o0bVWPXNXfqsljzd4rOVJ0GUVfUUNbLzU9IJI8cw0zv6Y70nibqyRZoC0vbQHomGco8tlZmepqp6VpXCW2ibZHcfslQ64WBrHlhgNnTbhJGy0R2ef8LAyLxPvlI3H44Flc4Ju23mpo3Hxo3CHrmUk0D0HH76/LIcQPQsPdfHtFzSMz5KD8AAAAASUVORK5CYII=;" vertex="1" parent="1">
          <mxGeometry x="386.88" y="138.64" width="40" height="40" as="geometry" />
        </mxCell>
        <mxCell id="mggX9JK2n9Wl0W4keAl1-57" value="" style="shape=image;verticalLabelPosition=bottom;labelBackgroundColor=#ffffff;verticalAlign=top;aspect=fixed;imageAspect=0;image=data:image/png,iVBORw0KGgoAAAANSUhEUgAAADIAAAAyCAYAAAAeP4ixAAAEzUlEQVRoBe1az08bRxTOv9WoB65pwY56SavEySESFZFyTm5NW9kiCmkt2rQYs4td/INYpVLbqJeQpFWj4B9pKqEekwA5QCExIPBusb32V32ztb2/As7QGGN5pCfwzJvZ9+17M/PNvjnxTuQRekFO9AIIYnABORnN4qRS6G6JZl1R5ALybnQBA0oeA2oOA0qXibApD9rojKQmEHqCCiM/LmIitwzl8QtM5le6SmhTJL8ibKSttLkBqAVEKQgPRPIvoFcMGHVgz6h3ldAmrWIIMIwWToHXAiFqdujWYtTrIloOBMJwoidY6rU6Stv/YOdVCbubmkN0s35LR62DyPeMGqKFFRE9+3rECqS0rSP5yS+4NXwb34zY5dtLGVEfv/ozttZ3OuZAKSC7RQ3jF1O47p9BcFBxyBRu+BMY+zCBv5+/7HIgm5rwRHBQxbVTEy4JDU7jy0DqOAFRXCAIrA/kEIEoN0eaodX3yCHevXdXOY8UNXx1MY0b/qSYD5wTVhnzpzB2JoG1pxveT30LtVJASls64lfvIHwuLVYnrlBWCZ+dRWTkB6wvF9+Cyd5DSgHhjs3Nbu3ZhlhiuV9YZfXphgBR1iuo1zvDa6SAeL+To62VAsK3XK0YqJYNVPaqnsJ2qzdqRg3Vsrcux2AbdWSLFJA9vYLcnb8wH8vh/nd5mzyYKeCuuoDfbz8BORkLDVxeXMWDRAH3YlmbPvuzjm3UkQUjBaS0qWPi8vcI+VWETitu8akIn09ifcmc7PTcb6nHGP1ARdDn1mcd26hDz8gUKSA7xRK+Hp7FqC+Oz9+fcsl13wy+OJvE2jOTNDJ05mNZBIcUhIamXfqsY9u9eE6Ea8eA8AxC+k7m2w5pJBCGEL1H4M4+rAudVsGwpPdkipRH+kD6Hjk42KRCq4cmO5ffuf+WUi7BdgkO7bf82nXZN+hTj2b55YaY54Y4nRMrDVcbq5gb4h+2DXFpcRW/Jgq4H8/bdNmPdWyjTkc3RFIPo0rKYdIUz7+voSieumKcI6AoB0+9zmtITXbS+O2NXUHd10jhl17ZxEnjyeT5QY+URVB/hz7r2EZuRl16nEcAnmc4lnN88cznL4UNjY+AUkAaB6vxwCzCgSTC59N2OZe2HazIhB9m/kT4QhrhgEOXfVl3IYWHmSeCVdOfBBG5NCcOb67xA0nw2Tzc0RYWKSD8QPcmR11SlLvKAj57LwryMOuxmP+zjm3zarZJUcjTbn6UAI/NTn3+5jGbNtAWeSAd4FoMJ3qCRju5GX+T55HvkS71gXSCNPY9clCix5pWaHmkvY/YrfOI2vZ5hEtsOGBOdO85ov4Pc+QN0wrczXm+//RUBKO+mCMNoYg6tpHyUJeFn5dunpkRKYrg4JSrD1Ma44ddtVqJnox4K9ZkTyPRE7vSSvRwHyE3i1yew62P7Ykh9mUd26hDXRZuuLErP4mkEce0PkP0Gc6IZFPjA4fUPtJO6o0bVWPXNXfqsljzd4rOVJ0GUVfUUNbLzU9IJI8cw0zv6Y70nibqyRZoC0vbQHomGco8tlZmepqp6VpXCW2ibZHcfslQ64WBrHlhgNnTbhJGy0R2ef8LAyLxPvlI3H44Flc4Ju23mpo3Hxo3CHrmUk0D0HH76/LIcQPQsPdfHtFzSMz5KD8AAAAASUVORK5CYII=;" vertex="1" parent="1">
          <mxGeometry x="385" y="190" width="40" height="40" as="geometry" />
        </mxCell>
        <mxCell id="mggX9JK2n9Wl0W4keAl1-58" value="" style="rounded=1;whiteSpace=wrap;html=1;rotation=-90;dashed=1;" vertex="1" parent="1">
          <mxGeometry x="425" y="150" width="111.25" height="63.75" as="geometry" />
        </mxCell>
        <mxCell id="mggX9JK2n9Wl0W4keAl1-59" value="" style="rounded=1;whiteSpace=wrap;html=1;rotation=-90;dashed=1;" vertex="1" parent="1">
          <mxGeometry x="495" y="148.13" width="111.25" height="63.75" as="geometry" />
        </mxCell>
        <mxCell id="mggX9JK2n9Wl0W4keAl1-60" value="&lt;br&gt;&lt;br&gt;&lt;br&gt;&lt;br&gt;Redis Cache&lt;br&gt;Namespace" style="whiteSpace=wrap;html=1;aspect=fixed;dashed=1;fontFamily=Tahoma;fontSize=10;" vertex="1" parent="1">
          <mxGeometry x="593.13" y="206.63" width="80" height="80" as="geometry" />
        </mxCell>
        <mxCell id="mggX9JK2n9Wl0W4keAl1-61" value="&lt;br style=&quot;font-size: 10px&quot;&gt;&lt;br&gt;&lt;br&gt;Platform Security&lt;br&gt;Namespace" style="whiteSpace=wrap;html=1;aspect=fixed;dashed=1;fontFamily=Tahoma;fontSize=10;verticalAlign=middle;" vertex="1" parent="1">
          <mxGeometry x="595" y="120" width="80" height="80" as="geometry" />
        </mxCell>
        <mxCell id="mggX9JK2n9Wl0W4keAl1-62" value="" style="shape=image;verticalLabelPosition=bottom;labelBackgroundColor=#ffffff;verticalAlign=top;aspect=fixed;imageAspect=0;image=data:image/png,iVBORw0KGgoAAAANSUhEUgAAADIAAAAyCAYAAAAeP4ixAAAEzUlEQVRoBe1az08bRxTOv9WoB65pwY56SavEySESFZFyTm5NW9kiCmkt2rQYs4td/INYpVLbqJeQpFWj4B9pKqEekwA5QCExIPBusb32V32ztb2/As7QGGN5pCfwzJvZ9+17M/PNvjnxTuQRekFO9AIIYnABORnN4qRS6G6JZl1R5ALybnQBA0oeA2oOA0qXibApD9rojKQmEHqCCiM/LmIitwzl8QtM5le6SmhTJL8ibKSttLkBqAVEKQgPRPIvoFcMGHVgz6h3ldAmrWIIMIwWToHXAiFqdujWYtTrIloOBMJwoidY6rU6Stv/YOdVCbubmkN0s35LR62DyPeMGqKFFRE9+3rECqS0rSP5yS+4NXwb34zY5dtLGVEfv/ozttZ3OuZAKSC7RQ3jF1O47p9BcFBxyBRu+BMY+zCBv5+/7HIgm5rwRHBQxbVTEy4JDU7jy0DqOAFRXCAIrA/kEIEoN0eaodX3yCHevXdXOY8UNXx1MY0b/qSYD5wTVhnzpzB2JoG1pxveT30LtVJASls64lfvIHwuLVYnrlBWCZ+dRWTkB6wvF9+Cyd5DSgHhjs3Nbu3ZhlhiuV9YZfXphgBR1iuo1zvDa6SAeL+To62VAsK3XK0YqJYNVPaqnsJ2qzdqRg3Vsrcux2AbdWSLFJA9vYLcnb8wH8vh/nd5mzyYKeCuuoDfbz8BORkLDVxeXMWDRAH3YlmbPvuzjm3UkQUjBaS0qWPi8vcI+VWETitu8akIn09ifcmc7PTcb6nHGP1ARdDn1mcd26hDz8gUKSA7xRK+Hp7FqC+Oz9+fcsl13wy+OJvE2jOTNDJ05mNZBIcUhIamXfqsY9u9eE6Ea8eA8AxC+k7m2w5pJBCGEL1H4M4+rAudVsGwpPdkipRH+kD6Hjk42KRCq4cmO5ffuf+WUi7BdgkO7bf82nXZN+hTj2b55YaY54Y4nRMrDVcbq5gb4h+2DXFpcRW/Jgq4H8/bdNmPdWyjTkc3RFIPo0rKYdIUz7+voSieumKcI6AoB0+9zmtITXbS+O2NXUHd10jhl17ZxEnjyeT5QY+URVB/hz7r2EZuRl16nEcAnmc4lnN88cznL4UNjY+AUkAaB6vxwCzCgSTC59N2OZe2HazIhB9m/kT4QhrhgEOXfVl3IYWHmSeCVdOfBBG5NCcOb67xA0nw2Tzc0RYWKSD8QPcmR11SlLvKAj57LwryMOuxmP+zjm3zarZJUcjTbn6UAI/NTn3+5jGbNtAWeSAd4FoMJ3qCRju5GX+T55HvkS71gXSCNPY9clCix5pWaHmkvY/YrfOI2vZ5hEtsOGBOdO85ov4Pc+QN0wrczXm+//RUBKO+mCMNoYg6tpHyUJeFn5dunpkRKYrg4JSrD1Ma44ddtVqJnox4K9ZkTyPRE7vSSvRwHyE3i1yew62P7Ykh9mUd26hDXRZuuLErP4mkEce0PkP0Gc6IZFPjA4fUPtJO6o0bVWPXNXfqsljzd4rOVJ0GUVfUUNbLzU9IJI8cw0zv6Y70nibqyRZoC0vbQHomGco8tlZmepqp6VpXCW2ibZHcfslQ64WBrHlhgNnTbhJGy0R2ef8LAyLxPvlI3H44Flc4Ju23mpo3Hxo3CHrmUk0D0HH76/LIcQPQsPdfHtFzSMz5KD8AAAAASUVORK5CYII=;" vertex="1" parent="1">
          <mxGeometry x="462.5" y="138.64" width="40" height="40" as="geometry" />
        </mxCell>
        <mxCell id="mggX9JK2n9Wl0W4keAl1-63" value="" style="shape=image;verticalLabelPosition=bottom;labelBackgroundColor=#ffffff;verticalAlign=top;aspect=fixed;imageAspect=0;image=data:image/png,iVBORw0KGgoAAAANSUhEUgAAADIAAAAyCAYAAAAeP4ixAAAEzUlEQVRoBe1az08bRxTOv9WoB65pwY56SavEySESFZFyTm5NW9kiCmkt2rQYs4td/INYpVLbqJeQpFWj4B9pKqEekwA5QCExIPBusb32V32ztb2/As7QGGN5pCfwzJvZ9+17M/PNvjnxTuQRekFO9AIIYnABORnN4qRS6G6JZl1R5ALybnQBA0oeA2oOA0qXibApD9rojKQmEHqCCiM/LmIitwzl8QtM5le6SmhTJL8ibKSttLkBqAVEKQgPRPIvoFcMGHVgz6h3ldAmrWIIMIwWToHXAiFqdujWYtTrIloOBMJwoidY6rU6Stv/YOdVCbubmkN0s35LR62DyPeMGqKFFRE9+3rECqS0rSP5yS+4NXwb34zY5dtLGVEfv/ozttZ3OuZAKSC7RQ3jF1O47p9BcFBxyBRu+BMY+zCBv5+/7HIgm5rwRHBQxbVTEy4JDU7jy0DqOAFRXCAIrA/kEIEoN0eaodX3yCHevXdXOY8UNXx1MY0b/qSYD5wTVhnzpzB2JoG1pxveT30LtVJASls64lfvIHwuLVYnrlBWCZ+dRWTkB6wvF9+Cyd5DSgHhjs3Nbu3ZhlhiuV9YZfXphgBR1iuo1zvDa6SAeL+To62VAsK3XK0YqJYNVPaqnsJ2qzdqRg3Vsrcux2AbdWSLFJA9vYLcnb8wH8vh/nd5mzyYKeCuuoDfbz8BORkLDVxeXMWDRAH3YlmbPvuzjm3UkQUjBaS0qWPi8vcI+VWETitu8akIn09ifcmc7PTcb6nHGP1ARdDn1mcd26hDz8gUKSA7xRK+Hp7FqC+Oz9+fcsl13wy+OJvE2jOTNDJ05mNZBIcUhIamXfqsY9u9eE6Ea8eA8AxC+k7m2w5pJBCGEL1H4M4+rAudVsGwpPdkipRH+kD6Hjk42KRCq4cmO5ffuf+WUi7BdgkO7bf82nXZN+hTj2b55YaY54Y4nRMrDVcbq5gb4h+2DXFpcRW/Jgq4H8/bdNmPdWyjTkc3RFIPo0rKYdIUz7+voSieumKcI6AoB0+9zmtITXbS+O2NXUHd10jhl17ZxEnjyeT5QY+URVB/hz7r2EZuRl16nEcAnmc4lnN88cznL4UNjY+AUkAaB6vxwCzCgSTC59N2OZe2HazIhB9m/kT4QhrhgEOXfVl3IYWHmSeCVdOfBBG5NCcOb67xA0nw2Tzc0RYWKSD8QPcmR11SlLvKAj57LwryMOuxmP+zjm3zarZJUcjTbn6UAI/NTn3+5jGbNtAWeSAd4FoMJ3qCRju5GX+T55HvkS71gXSCNPY9clCix5pWaHmkvY/YrfOI2vZ5hEtsOGBOdO85ov4Pc+QN0wrczXm+//RUBKO+mCMNoYg6tpHyUJeFn5dunpkRKYrg4JSrD1Ma44ddtVqJnox4K9ZkTyPRE7vSSvRwHyE3i1yew62P7Ykh9mUd26hDXRZuuLErP4mkEce0PkP0Gc6IZFPjA4fUPtJO6o0bVWPXNXfqsljzd4rOVJ0GUVfUUNbLzU9IJI8cw0zv6Y70nibqyRZoC0vbQHomGco8tlZmepqp6VpXCW2ibZHcfslQ64WBrHlhgNnTbhJGy0R2ef8LAyLxPvlI3H44Flc4Ju23mpo3Hxo3CHrmUk0D0HH76/LIcQPQsPdfHtFzSMz5KD8AAAAASUVORK5CYII=;" vertex="1" parent="1">
          <mxGeometry x="462.5" y="190" width="40" height="40" as="geometry" />
        </mxCell>
        <mxCell id="mggX9JK2n9Wl0W4keAl1-64" value="" style="shape=image;verticalLabelPosition=bottom;labelBackgroundColor=#ffffff;verticalAlign=top;aspect=fixed;imageAspect=0;image=data:image/png,iVBORw0KGgoAAAANSUhEUgAAADIAAAAyCAYAAAAeP4ixAAAEzUlEQVRoBe1az08bRxTOv9WoB65pwY56SavEySESFZFyTm5NW9kiCmkt2rQYs4td/INYpVLbqJeQpFWj4B9pKqEekwA5QCExIPBusb32V32ztb2/As7QGGN5pCfwzJvZ9+17M/PNvjnxTuQRekFO9AIIYnABORnN4qRS6G6JZl1R5ALybnQBA0oeA2oOA0qXibApD9rojKQmEHqCCiM/LmIitwzl8QtM5le6SmhTJL8ibKSttLkBqAVEKQgPRPIvoFcMGHVgz6h3ldAmrWIIMIwWToHXAiFqdujWYtTrIloOBMJwoidY6rU6Stv/YOdVCbubmkN0s35LR62DyPeMGqKFFRE9+3rECqS0rSP5yS+4NXwb34zY5dtLGVEfv/ozttZ3OuZAKSC7RQ3jF1O47p9BcFBxyBRu+BMY+zCBv5+/7HIgm5rwRHBQxbVTEy4JDU7jy0DqOAFRXCAIrA/kEIEoN0eaodX3yCHevXdXOY8UNXx1MY0b/qSYD5wTVhnzpzB2JoG1pxveT30LtVJASls64lfvIHwuLVYnrlBWCZ+dRWTkB6wvF9+Cyd5DSgHhjs3Nbu3ZhlhiuV9YZfXphgBR1iuo1zvDa6SAeL+To62VAsK3XK0YqJYNVPaqnsJ2qzdqRg3Vsrcux2AbdWSLFJA9vYLcnb8wH8vh/nd5mzyYKeCuuoDfbz8BORkLDVxeXMWDRAH3YlmbPvuzjm3UkQUjBaS0qWPi8vcI+VWETitu8akIn09ifcmc7PTcb6nHGP1ARdDn1mcd26hDz8gUKSA7xRK+Hp7FqC+Oz9+fcsl13wy+OJvE2jOTNDJ05mNZBIcUhIamXfqsY9u9eE6Ea8eA8AxC+k7m2w5pJBCGEL1H4M4+rAudVsGwpPdkipRH+kD6Hjk42KRCq4cmO5ffuf+WUi7BdgkO7bf82nXZN+hTj2b55YaY54Y4nRMrDVcbq5gb4h+2DXFpcRW/Jgq4H8/bdNmPdWyjTkc3RFIPo0rKYdIUz7+voSieumKcI6AoB0+9zmtITXbS+O2NXUHd10jhl17ZxEnjyeT5QY+URVB/hz7r2EZuRl16nEcAnmc4lnN88cznL4UNjY+AUkAaB6vxwCzCgSTC59N2OZe2HazIhB9m/kT4QhrhgEOXfVl3IYWHmSeCVdOfBBG5NCcOb67xA0nw2Tzc0RYWKSD8QPcmR11SlLvKAj57LwryMOuxmP+zjm3zarZJUcjTbn6UAI/NTn3+5jGbNtAWeSAd4FoMJ3qCRju5GX+T55HvkS71gXSCNPY9clCix5pWaHmkvY/YrfOI2vZ5hEtsOGBOdO85ov4Pc+QN0wrczXm+//RUBKO+mCMNoYg6tpHyUJeFn5dunpkRKYrg4JSrD1Ma44ddtVqJnox4K9ZkTyPRE7vSSvRwHyE3i1yew62P7Ykh9mUd26hDXRZuuLErP4mkEce0PkP0Gc6IZFPjA4fUPtJO6o0bVWPXNXfqsljzd4rOVJ0GUVfUUNbLzU9IJI8cw0zv6Y70nibqyRZoC0vbQHomGco8tlZmepqp6VpXCW2ibZHcfslQ64WBrHlhgNnTbhJGy0R2ef8LAyLxPvlI3H44Flc4Ju23mpo3Hxo3CHrmUk0D0HH76/LIcQPQsPdfHtFzSMz5KD8AAAAASUVORK5CYII=;" vertex="1" parent="1">
          <mxGeometry x="530" y="138.64" width="40" height="40" as="geometry" />
        </mxCell>
        <mxCell id="mggX9JK2n9Wl0W4keAl1-65" value="" style="shape=image;verticalLabelPosition=bottom;labelBackgroundColor=#ffffff;verticalAlign=top;aspect=fixed;imageAspect=0;image=data:image/png,iVBORw0KGgoAAAANSUhEUgAAADIAAAAyCAYAAAAeP4ixAAAEzUlEQVRoBe1az08bRxTOv9WoB65pwY56SavEySESFZFyTm5NW9kiCmkt2rQYs4td/INYpVLbqJeQpFWj4B9pKqEekwA5QCExIPBusb32V32ztb2/As7QGGN5pCfwzJvZ9+17M/PNvjnxTuQRekFO9AIIYnABORnN4qRS6G6JZl1R5ALybnQBA0oeA2oOA0qXibApD9rojKQmEHqCCiM/LmIitwzl8QtM5le6SmhTJL8ibKSttLkBqAVEKQgPRPIvoFcMGHVgz6h3ldAmrWIIMIwWToHXAiFqdujWYtTrIloOBMJwoidY6rU6Stv/YOdVCbubmkN0s35LR62DyPeMGqKFFRE9+3rECqS0rSP5yS+4NXwb34zY5dtLGVEfv/ozttZ3OuZAKSC7RQ3jF1O47p9BcFBxyBRu+BMY+zCBv5+/7HIgm5rwRHBQxbVTEy4JDU7jy0DqOAFRXCAIrA/kEIEoN0eaodX3yCHevXdXOY8UNXx1MY0b/qSYD5wTVhnzpzB2JoG1pxveT30LtVJASls64lfvIHwuLVYnrlBWCZ+dRWTkB6wvF9+Cyd5DSgHhjs3Nbu3ZhlhiuV9YZfXphgBR1iuo1zvDa6SAeL+To62VAsK3XK0YqJYNVPaqnsJ2qzdqRg3Vsrcux2AbdWSLFJA9vYLcnb8wH8vh/nd5mzyYKeCuuoDfbz8BORkLDVxeXMWDRAH3YlmbPvuzjm3UkQUjBaS0qWPi8vcI+VWETitu8akIn09ifcmc7PTcb6nHGP1ARdDn1mcd26hDz8gUKSA7xRK+Hp7FqC+Oz9+fcsl13wy+OJvE2jOTNDJ05mNZBIcUhIamXfqsY9u9eE6Ea8eA8AxC+k7m2w5pJBCGEL1H4M4+rAudVsGwpPdkipRH+kD6Hjk42KRCq4cmO5ffuf+WUi7BdgkO7bf82nXZN+hTj2b55YaY54Y4nRMrDVcbq5gb4h+2DXFpcRW/Jgq4H8/bdNmPdWyjTkc3RFIPo0rKYdIUz7+voSieumKcI6AoB0+9zmtITXbS+O2NXUHd10jhl17ZxEnjyeT5QY+URVB/hz7r2EZuRl16nEcAnmc4lnN88cznL4UNjY+AUkAaB6vxwCzCgSTC59N2OZe2HazIhB9m/kT4QhrhgEOXfVl3IYWHmSeCVdOfBBG5NCcOb67xA0nw2Tzc0RYWKSD8QPcmR11SlLvKAj57LwryMOuxmP+zjm3zarZJUcjTbn6UAI/NTn3+5jGbNtAWeSAd4FoMJ3qCRju5GX+T55HvkS71gXSCNPY9clCix5pWaHmkvY/YrfOI2vZ5hEtsOGBOdO85ov4Pc+QN0wrczXm+//RUBKO+mCMNoYg6tpHyUJeFn5dunpkRKYrg4JSrD1Ma44ddtVqJnox4K9ZkTyPRE7vSSvRwHyE3i1yew62P7Ykh9mUd26hDXRZuuLErP4mkEce0PkP0Gc6IZFPjA4fUPtJO6o0bVWPXNXfqsljzd4rOVJ0GUVfUUNbLzU9IJI8cw0zv6Y70nibqyRZoC0vbQHomGco8tlZmepqp6VpXCW2ibZHcfslQ64WBrHlhgNnTbhJGy0R2ef8LAyLxPvlI3H44Flc4Ju23mpo3Hxo3CHrmUk0D0HH76/LIcQPQsPdfHtFzSMz5KD8AAAAASUVORK5CYII=;" vertex="1" parent="1">
          <mxGeometry x="531.25" y="190" width="40" height="40" as="geometry" />
        </mxCell>
        <mxCell id="mggX9JK2n9Wl0W4keAl1-66" value="" style="shape=image;verticalLabelPosition=bottom;labelBackgroundColor=#ffffff;verticalAlign=top;aspect=fixed;imageAspect=0;image=data:image/png,iVBORw0KGgoAAAANSUhEUgAAADIAAAAyCAYAAAAeP4ixAAAM0UlEQVRoBe1ZeXBV1R1+tiqLrOGt99635L2ExRBjKKIjWvUP/2jrMCqCSx2tTtUqFXCpFlDGfWxdkUBCgEQUg0IISUheEhKyQgIogggIiIKoLAoRBCEmyNf5zn2/9ObxsgjpdMbxzZw55957lu/7reecZ8Mv5Gf7hfDAr0S6oslTzc1oPnwYzYeP4FRzS1eGnHGfbtdI88GD+Cr7LWy67U7UX3oFqgYPV6V+1Gh8dOsd6tuP3357xoDbG9htRI58uBHbH5uCVcNS0DDQjbpeA1AzyIMqh65KjUNHvcPAmkEa6oYkY8fj03D4/fXt4frZ78+KyMnvv8f+JUux4YZxqLRrWOs0UNnfgdrUUVh33fUo7ROH4t/0QknP/ij+bS/VLncaqPUlYK3dJLhhzFjsXfQeWo58/7PBWwecEZGjW7bis6eeRf3Fl6DBYWC1w0CFXUPZIA/C5/VB9ZBknPzhOBrrG/Dx/Q+i/sprsOm+CfgyawH25eWr76X97GoMx3KO+pRLsPOpZ3F06ydWfF1ud5nIyRNN+KYorGx/pcuLdU4DNJcVdk2Vsjg3KO3qpIux/qZbEcsPWo4eVdoqsp3XOk7GVzt0U6NOA5tuuR0H8gtx8sSJ7iPyw+e7sPulV9Ew6gqsduhKeisj0l8xyGOSGOBETfIIbJv6JL4Jl+L4ni/xUwwQPzU1YXdaOhquvhYrKITIeCHDeWmi9CWWhktGY9e/X8HxXbs7JRRbI6dO4WDFSmy++15UGUElqeq+gxCO2Hn4/D4I9+wH1mL7Zf0dKHd5VSGw+iuuAcMvfweKS7Dh9ruw5aFHsfPFl7BtypOoSUqFGhMBTxLLHBrCdg1s01RrI1qq9oaw6S9/xcGycpxqiR3G2xBp+nov9szKwLqrrkWdQ8cap4GVcW4Un9sbNcNTsXnCJOxOz8S+3GX4tqIS+5cV4IuMTGz++2T1naRK+ztQNsCJIlsP7Jmbpb6X9B6gnoV0+Py+KI9zoyoC+F2Hjn+5dExzG5jt0pHj0FBsIUQtmb6oY83oq7F7xkwQq/WniDSurseWCRNRGxyqpE8S5TSfOLcCRim2HD5iHXdam1Hn85dfUyQ4bgWLXUNJ74HqnTKliD+RQJldw1tOHc+5DTziMTDJYygiM106XnfpSHPp6nuhw9QONURMxMboWBMciq0TJqGxbrXCYvv0meeV7avQaf+v8xJE8bkX4KO77jkNdEcvNk98WJkbx5cNdLfxAyUcu4Y5Th1TPQYmeww87DHwmMfAox4DT7gNRYBk3ogQmuHSMdepI99hEuG8LJV2kxB9acf0p2ErH3YRVtl1ZZPSSeqSnv2w7g9jOsJ92rf1428DTUfmsNYkwue3nTpecOsK/EMeA/+IQYQEqJlZEc0sj2jEOp/yI7uGsB6A7c3kVOTqAazQA6ikT0QNIJn3x9yIQ7WrWp03Gj2dunHVaqwfdytKevWPSYIRiiZH/6kc5FHRaalDw2suHf/0GJjoMTDVbbRqIsOlg75TEvEVEQJrFd2chsK81J+ADN0PW0ZoCN5wG0jX/cjxh1DsDYJ5QiIHJcDoxCy9atRobLjtDmyZ9Ai2T39a1XzmezOL91Q+VXLBQIR79FVBovicniqjU0sMBJWBwSh3+5TJ0YnpL/QD+sTTbgOZTh25DlNzVqFS+uxPbMRIrBlGADPcBmiKtnR/qNUuqc6Zuh9Z3iCW+UIo1/yodETMLs6tHDd83gWRkNtT1XwmCYZSOjSB1v3uMqz70/X46O57sW3adOyelYEDRWEc+XAD9hcUmpqJBAMKioBJiNKXZ9GAIsDgowWQ709Ati+kMNLsSECKLd1tRgh5wVo5mttQjBdpfiyPRA6rhMRWS/sOwurLr8K+JXlo2rsXJ48ew0+R/BFtgnz+4MablYZlvLUmeCliEUV2DTkeH+Z44zHD41XYrFjZnuM2YCu9935ke7yYHbFPayeJHKyznDpo0wybsogCEbH92pSR2PHsCzi+u/0s/NXCHNDUojO6kKH0OTef8xyaWpN4oqXPd8SU5jaQ5fGi7L4HzBPizqIwFo+6HOkuQw1iJyshmYwT0gkXRRKWLEwplva1o+icHsq8GLIbV9W3UUjzoUOoGpwE+o8AZ82xBM/CJMi5M5wmeK4XjYXPfM/E+W5yKrYvWarWsf3w6U7seGAi6kJDUezQsdBpdmJn5TNRpCQskly2U1fbCgIiEIJiVFJb9z5xaiu/P79QRbtPHpuisrskRiHAscwRbzpNE+9sXRJg+C5yaKg1Qtgy/s/4bs062BpGX40PnV6VR2TyUruGJQ5NJSKRQHuSITFGmvcs+yRlHnFutaUP9+iH1ZddaUaqOLdah9+5p+IYjhXhtLcG3zMpLraEY1oD8a7n+SZ5BGx5KSPVRo/RSQGwqJsdCxzmVoKJqTNpMYQuiGRh+hIXq6AP9R6A8oEuZXbmfGa47Ww+rsn5OEaEzJqFUa7K5UVl4oVYnJQCW3riMMwxAnjXH0LYiFdxmvGaIKh28QOGxq5KkBKmL8136spkaDZsc2vSdQ3rbXbCQoQEuBsuvzAFVML8IUlKo7aM+ESVRyidWbofC/wJKAgkqrjdmkMsWiI5bre7YtNiMiJ5PkcHEelDbXJOzm31OWlXOb2oCg1DScpI5CSnIj04WBHgOM5pS/OYmVEW4MRvaD7Mi09EbuKFKNUCrVGFk8rEYufcRlDSBMsSbecyr7UWrbC/GQX11m27mLesQ+so84awLGUksoclI80bj5mWzSXnZQBQGpnn8Z4mKXbgPijN440ZnbiQqJttxn1GMY4TDRCwtYj02Yd9OSY6L1nnlGg2S/OpOUX6HC+F2DMCCbB93bAWBWPHY7Y/pFQVLVGRHkHMcbWNTuJHsjilqTJxxB/orFychW1q7h2GTovvcSwFIb4YK5oJaKmJiXiIOf+Gm0AO6mB1oGA5KoanqhzCRUWiMlBqkSj7SHQSEtGACI4BgqBZrPuoaAFw7M+JZlyf+a5i+Ajsz8s3E+KWBx/CGoeB6ohUKJFFDr1L2ZXEzPhuAqVGBKSYHp9ZhKhV+iS3OJKvREjtWUS0P3FOYl7rMLBlwmTYyoZehFq7mUO4GIs4XLTdRy9CTQkAybjcksscQoyLsi3PhepwpSknbU/7YtJcI5Y/yRokU6jHw5aVnIpFRrzKIZVMMBYJyuJi9+kdmJ0szHqek4ciM0yTGAvDKvMQ84m1r5it1CIYrkV/4slQBCGClnNJiTeIRYEEpGk+82DFwWm6Dwt8ISzzBlvPISRiNQVGGB56CLQrYDgv+7EIQNYCWmrrXCSa69DbRDORvsprmh/5vpDKd8x71CjnsaX7gm0OVtzzZ/qCeM+fgFJmesvxVyakhCipzjaYArS9WsiJWUafe7gepU9LKfUGsdifgLn+kMpzVoHQ+W0Z7R2sGN68AbzlC6LAG0SFx9dq41YtdWWDaSVilX57G0ExJa5Z6Avh7UACZhsBJX2Ot87HsJ7Bg1X141Mxz+1VB5TZrrZZngPInFqa5w9hiT+EsqhLCtES6+gNJtUeXbgw77NibQRpyrwAKTPikRtIUGtyl2GVvpAgVh6q5nu8qJ32pJlHvqyuwYp7/obM+ER1WuTRUQZIrSTpNtR+bKEviOVGPCrcbS8pRJIMq/QlOivPDixs0/atV6IkzzHKed0+LPcG8Y5IP8aJlViIjSfaTH9IYd5TVWPmEesx7sgXX2D9q68jZ/TvlZbIlhIUMlJTQmo/5gsi1xcyr5IixwCCEy1J1LPW1u+U/gotgLxAIrL8CepSIZb0iYFYaDkLLx2ND15+FYc/32WFHvvP0JNNP2JXuATh2+9U10SUQEdaSjcCyPEnoEgPtDkGCGipW6Xv8qKIVzqBBGR0cKlA2+favKoils+KitES45afjNpcYrehGHlo3LEDa59/EW+PvEzZJKUSS0sqDOo+dZWU5wuhVPOjQvNjJYOEx6fafLesgysdapxzi88uSB2Jhmeew6FPtsWC1uZdp0Skd/OxY9iRm4fCsTerjExJUWJiblKLL83mUSCQgCxfUBW2Z+v+dq900iPSZyguuHEcti/ORVMnF+eCjXWXiVgHfbNxI1Y9MR0LLhqhtDTX7W3NRUJIahKLDpnyjfF/buRKJzspBXVTnsCBDRusS3W5fUZEZPamxu+wdWEO8q67vjWaULICtL2afRg6qdG8P47Bx9lv4vhZ/mV9VkSEEOu9DWtQNfkRZA0ZrhyUdk6gBM3CNt/RJLOGJKFy0sNqjHWOs2l3GxEBcWzffmyen43CcbdgwYhRyEwchszBw1S7cOx4bMzIxLG9+6R7t9XdTsSKjP/KnmhsxIlDh9By/Lj1U7e3/6dEuh1tBxP+SqQD4fxfPv0H3zHo2TVdVFgAAAAASUVORK5CYII=;dashed=1;fontFamily=Helvetica;fontSize=12;fontColor=#000000;align=center;strokeColor=#000000;fillColor=#ffffff;html=1;" vertex="1" parent="1">
          <mxGeometry x="616.87" y="206.63" width="36.25" height="36.25" as="geometry" />
        </mxCell>
        <mxCell id="mggX9JK2n9Wl0W4keAl1-67" value="" style="shape=image;verticalLabelPosition=bottom;labelBackgroundColor=#ffffff;verticalAlign=top;aspect=fixed;imageAspect=0;image=data:image/png,iVBORw0KGgoAAAANSUhEUgAAAEwAAAAWCAYAAABqgnq6AAAHKUlEQVRYCe1XfVTOVxz/7Zy255dtNmaOk9kO4ylNPW+VtwozQkNC8hKTirwWKSRh3iIlbBymgxxnzrxMcXCY2Zy9MLZmyhOVFJWUkJZePzvf++v38/ye5/dE44/tnO459/nd+73ft/u533u/34eDQmsoSgDSXwMuccAFDrjIAekcEOEB9AkBhgQDsUlAfb2CtJz0pLoa+YVFcuJzzkpKy3C7qLhJ7tL75Ux/+cNHTfLV1NYi/04h63V11v2uq6tj+mpqahX1cTJqQz0abi0CjNxTsAiwC68AZ3gg9BPAPRgYHAiMmQNU18jETScH0k5gVMhsfDTQG6puzujrOx4B4VG4dOWqKZvFmDa2Y/8BjAqZg3ece6KVWoNhn03H4rhE5BXctuD3nxUO3tEFyzYmWayZEjJvZDM/SF+BwgEeOXkGvtPnwuDty/i0Q3zgNzMMJ8+dN1UDOWAlu4BSDsjhgKzGfp0DrrwKXFYBCwYAfRsBmzAfUDgFY3Yu26DKXgu+uwG8gwG8vU74OujRuocrotcnypwQJwSmy/Ax4CVZPXgHnaTnQ8/BSM+4JrKz77iZYeAdXRETv0lGN58IgGnAd3WWAdbQ0IDgRTHg1VrBR/KZ/JV812Jl0heSOgmwDTdKkXb9OFC+ASiMl/fbCQD1z6OAgSFChCkARuHc28efGVOpNRg6ORiJX+1mnUCyc/UEAamy12N54hbJCRrcLCiAnVs/8A56dsIhi2Ik2YhVcehg6MvWOvUegPRMoyQ7fvZ8FmGxCZslmtJAjLDX7bUSYPX19ZgcHiUcir0OH/tPkWyS3318xjX6q0PsRkE/A2zx1WLYptdiccZDJVtPadsOAsOmWwUsfkcyVHQ69lpsSt7zVK5xRO9RL+aEDm2c3HDT5IqFRi+HykGPNxwN2HXgkIVsdt4tOA70Zofh7jseVU+eMJ4XAezYd+cEQNRaBIRF4nHl3zK79I5FrtkgRJxai9+vZoJLyi4Ff/Y2bH8swQpjiUzAYrJ1HzBUGbCHFRUwDPNlYT08cIaFqEgoKCpGe30fFi0Rq9czsjEnF286GmDroEdME2/RkROnwas1LAKvGLOY7L8BTEwkY0PnMT+cvUaAkpNSq66pgcZrJDuoZRs3g+NTM8GnGWF7ruiFAKO3ix53uorfHD+pZFuiBUVGs2sUEB7JaL/9+RdUai3aOvVE8b1Sic98cP/BA7R1cmNXSHyzRMBWJm01Z5fNTa9k4d0S0PPhPnoCAyJu204Zr/lkxpLlLMraaXuB49OugT+a0XzAzLLk9dw8qLo6ge/mLLtq5sZpHkVh7uiCaZHRbJlCnYBu59wTVVXCVVOSo016jp3INhm2fA1jGRU8i+mKWhuvJCLRcvML2IHadnMGlSsVjyuh7ufFIuzLvfslPqXB1Igl7JmhgOAILD61EbDM57ySw2YAkXGAST2TnZcPW7WGnUTCzt1KdiXags/XyQC7mE4RpsFbPVyRninPgpJQ48ArYBoDjHRQo3KCEoV9/yFWrxXxnfrhPLPR2tGAO8V3mWx/v8lMV/iKtWxu7UcCrKsTOP5YhhBhp4qw8pmApQA+84D5a4GKSpn+2ro6+ATNYg4YvEc36TxlPdMIo2vYue9AtvHhgaGgVG+tDZo4VQbYlWtGBgQlm+QDBxXFKiorG7O3C/xCwyAWrgtXr2c222l7IysnV1GWiIELo4UIY4BRdO3JQKvUYqwx3rMqxBbitgNzVgGVVYp85365wLIcOT8yaBaycm4q8plfSWKiYpXkqE+YF4GcW/kyWXGT5oARuD5BMxmI7XV9QAUzXV2x0dvlFRDEgKHEcvanX8Ul3CkuQVvnnsymZogPfr78h7RmOgiKWvoUsHfVWWjfOQvt1TnQ63Ix3CNfsQ/S38exzTcsIstUMY0XrdsolBYOOrTp4Yp+fgEW/YPeA9jDLb5hJEcbH0kbdxCKVTp1kvUcOwluI8ch9fRZZsocMCJSMhjgP0UoPNVauHiPlmzSFWS1nVqDzcl7mQ7Tn70Hv2URSjz0z0LJ345unkJCowiz427AjrsOOy4Ldlwe7GwKLXonmxqM8ChEebmpKeUxne6eg0fwPgOFNq/QWSWtx4S5ETIlVFvFJmxBB4O7IEfVdncDwleula64EmCk5MGjCgRGLMHblEUb5YRqXYcuHoORduZ7mS3Tyddpx9HFYxBU0r8KM5+p2KZyRq0BZ2dThI42JVb7ezaPMPHTQjypsv6umBoXx5SJUg4fxcS5C+E+ZhJL4ZTGxe7hF4BVW7aJ7LIv1Ukph1OxND4JVAybNmuAiTzXsnOYbMqho8z+vsOpKCt/IC5b/ZaUCf7OjV0NDwV/Rb+57YnlCPEvQ4h/oUK/h5iwMtRUNw8sq169hIVnAfYSTDSpQvov2STXf2ixBbBmHkYLYC2ANROBZrK3RFgLYM1EoJnsLRH2PwPsH/UL+JBWSQmSAAAAAElFTkSuQmCC;" vertex="1" parent="1">
          <mxGeometry x="606.25" y="130.32" width="60" height="17.37" as="geometry" />
        </mxCell>
        <mxCell id="mggX9JK2n9Wl0W4keAl1-68" value="" style="rounded=0;whiteSpace=wrap;html=1;dashed=1;" vertex="1" parent="1">
          <mxGeometry x="250" y="110" width="100" height="180" as="geometry" />
        </mxCell>
        <mxCell id="mggX9JK2n9Wl0W4keAl1-69" value="Service Mesh&lt;br style=&quot;font-size: 10px;&quot;&gt;+&lt;br style=&quot;font-size: 10px;&quot;&gt;Ingress Controller&lt;br style=&quot;font-size: 10px;&quot;&gt;" style="whiteSpace=wrap;html=1;aspect=fixed;dashed=1;fillColor=#dae8fc;strokeColor=#6c8ebf;align=center;verticalAlign=top;fontSize=10;fontStyle=0;fontFamily=Tahoma;" vertex="1" parent="1">
          <mxGeometry x="260" y="117.64" width="82" height="82" as="geometry" />
        </mxCell>
        <mxCell id="mggX9JK2n9Wl0W4keAl1-70" value="Service Mesh&lt;br style=&quot;font-size: 10px;&quot;&gt;+&lt;br style=&quot;font-size: 10px;&quot;&gt;Ingress Controller&lt;br style=&quot;font-size: 10px;&quot;&gt;" style="whiteSpace=wrap;html=1;aspect=fixed;dashed=1;fillColor=#dae8fc;strokeColor=#6c8ebf;align=center;verticalAlign=top;fontSize=10;fontStyle=0;fontFamily=Tahoma;" vertex="1" parent="1">
          <mxGeometry x="260" y="206.63" width="82" height="82" as="geometry" />
        </mxCell>
        <mxCell id="mggX9JK2n9Wl0W4keAl1-71" value="" style="shape=image;verticalLabelPosition=bottom;labelBackgroundColor=#ffffff;verticalAlign=top;aspect=fixed;imageAspect=0;image=data:image/png,iVBORw0KGgoAAAANSUhEUgAAADYAAAAcCAYAAAAqckyNAAAGiElEQVRYCdWYWUxUZxTHx91oNPFJffJFoyYajbvR+GJYhsXGtDHWPpA0cYkgMAPVFiFdHmiwLVYhUoIFZJGlKgPMAjOAFWoRWRsHhrLJIojMOCPbCIzwb86BuQ4MDBONzXiTm7nfcs49v+8s33dHBAfXxAQwZhl3MMN1h0SOTBsfn0Byng59RrOjaS455hCMLA6J/gvZRc0uabwjo+YFC79RDunVB450uOTYvGCRiVXwliihe2pySYC5jJoX7MqtavheKsOPSZVz6XDJ/nnBom5VwzukBMekCtS3vXRJiNmMcgpMHFwIL4kaBPmxXE6AVcFLUgjPICW+CC+Esf/1R8HmBFg1e8sjIBeeQSpka5wv/R0dHYiPj0dcXBxaWlqcWpA3b95Ar9fDYDBgfHzycEB9OTk5iI2NRXOzc++fFWxiYgLpBU3o7hvCr7fr2GPu/jKIg1Xw+04D08CIU0ZmZ2dDJBLxnZyc7JRMQ0MDtm3bhl27dqGtrY1l+vv7sWLFCixYsACJiYlO6ZkVrOGpEZ9eVKHj+SCuZbwFcw/IhTi4AFnqJqeU37lzRwBLSUmxk7F6xHagsbGRZRYtWoTW1lYeIo+lpqYiISEBXV1dttP5mRwx85oVLDKpEsekcuhNr3E1vVbwmNVrX36vwcDQ6Exddu27d+/agVksFjbQ3d0dhw4dwvHjx6FQKFiWPBQREYGlS5di+fLlCAwMRElJCUimsrISeXl56OnpEd5TV1eHyMhIHDlyhPXcvHmTQ5gm2IE1dZrgI5Hjs0tKOzA3/xx4BOTDO1iBx9pe4QVzPdiCZWRkYHR0FOfOnWNYMnz9+vXTwOVyOVavXi30rVy5EidOnIDRaMSePXu43+p5tVqNtWvXcnguW7ZMkDl69CjPtwP7KaUGPqH3cepyIQwm8wyP5cD9vIyLSURcOcbtI2Aaoy1Ybm4ulEqlYACt7uDgIMjAffv2QSqVYmxsjL23ZMkSEJRGo2Ejh4eHOecoX7OyskA5t3HjRtbl5+cHCt/i4mLOTZpz9uzZ6R5rbDfikxAFxBL1FJh9KFI4elzIh1dQPh43vJgGMrNhC0ZVrby8HAsXLmSD9u7di9OnT0Mmk02rmPX19RyKq1atEnKMwHbv3s1ytEAUugSwYcMG9Pa+jZzMzEzWT4syzWNXUqoZShyocAhGcF5SNX5IqJjJMq1tC5aWlsZjBHL48GGucmQcVbotW7YgPT2dx2trawUwnU7HfTPBaJFI9uDBg8KWQBMpDyksefFYEsC/HSb2lucFBTydAPMMVOLk1yo8NwxbVdj92oKR4ZRjVCCo2tEeR1XO19eXjSQPUR+FFRUPare3t7POmWD37t1jma1bt3I4W1+sUqlA1ZTz1Np5JaWGc8ftvMwpMHf/ydL/u6zeqsLu1xaMPEX5REYfOHAAJtPk10JpaSkbQx4gKNrHFi9ezKtOFZL6CMxaPGgL6ezsxJo1axjuzJkzGBkZ4Xk7duzgPg8Pj8lQ1D01wlcih2egHBRmbz1mLR5q7qcx25uOWSe/KZjTaxTzZDDd5LG+vj7s37+f25T8bm5uWLduHbcp38hAKuebNm0S5GhLoFPI9u3buS8pKYkX8Pr160I479y5kyskvWfz5s28OJxj0bdrIZYUCkaLg1T4PKyAq+IvaTXwlmpARyraoMlTDHdexm06RybItHbeog6tVguJRIKgoCBUV08eoLu7uxEWFgZaaYKhChYVFcVQViUVFRVcJf39/RETEwOz2QwCCQgIEPTQXPJ2aGgo6yI9tKdRONMlevZiAOLAPHgEFTIcnSzoNE+e0JvMiE6vhXdIEVdCjwt5fKyiRaDbK7gQ3tIinAovwEsXOxyLMjVtvDdJo0txOa4cP6fWoKTqGSq0vbBYxtHS9Qr3K7tQVtuDstpuxGTWISz2b0TEPQL9bXAqXM0bOo250iWivatHP/TONulNw2jufIXel3NXx3dW/h6Comd9w0iUtyI2ux5pyiakKhqRItdN3fQ82b411Ue/SfkNSMjRIj5Hhz9KulCl07+HCR9GVDRktqC4qgfSqw85f3wvlsJLWsR5xl/OnEca+IT+Cd+LZfAOLYFPcB6+uvYQyfJGlD/Rw/DqNeY5XX0Y6x1oFU4edO6r0D7Ht789gicVk0AF3Kb2KqqIZyOLEZlUhdwHbWjvGcAsXwoOXvP/Dwlgtq9+0mJA2I1HOBmmxo3sf/Ck2QDziMV2iss//weIunksNSA6gAAAAABJRU5ErkJggg==;rotation=0;" vertex="1" parent="1">
          <mxGeometry x="273.38" y="171" width="55.24" height="28.64" as="geometry" />
        </mxCell>
        <mxCell id="mggX9JK2n9Wl0W4keAl1-72" value="" style="shape=image;verticalLabelPosition=bottom;labelBackgroundColor=#ffffff;verticalAlign=top;aspect=fixed;imageAspect=0;image=data:image/png,iVBORw0KGgoAAAANSUhEUgAAADYAAAAcCAYAAAAqckyNAAAGiElEQVRYCdWYWUxUZxTHx91oNPFJffJFoyYajbvR+GJYhsXGtDHWPpA0cYkgMAPVFiFdHmiwLVYhUoIFZJGlKgPMAjOAFWoRWRsHhrLJIojMOCPbCIzwb86BuQ4MDBONzXiTm7nfcs49v+8s33dHBAfXxAQwZhl3MMN1h0SOTBsfn0Byng59RrOjaS455hCMLA6J/gvZRc0uabwjo+YFC79RDunVB450uOTYvGCRiVXwliihe2pySYC5jJoX7MqtavheKsOPSZVz6XDJ/nnBom5VwzukBMekCtS3vXRJiNmMcgpMHFwIL4kaBPmxXE6AVcFLUgjPICW+CC+Esf/1R8HmBFg1e8sjIBeeQSpka5wv/R0dHYiPj0dcXBxaWlqcWpA3b95Ar9fDYDBgfHzycEB9OTk5iI2NRXOzc++fFWxiYgLpBU3o7hvCr7fr2GPu/jKIg1Xw+04D08CIU0ZmZ2dDJBLxnZyc7JRMQ0MDtm3bhl27dqGtrY1l+vv7sWLFCixYsACJiYlO6ZkVrOGpEZ9eVKHj+SCuZbwFcw/IhTi4AFnqJqeU37lzRwBLSUmxk7F6xHagsbGRZRYtWoTW1lYeIo+lpqYiISEBXV1dttP5mRwx85oVLDKpEsekcuhNr3E1vVbwmNVrX36vwcDQ6Exddu27d+/agVksFjbQ3d0dhw4dwvHjx6FQKFiWPBQREYGlS5di+fLlCAwMRElJCUimsrISeXl56OnpEd5TV1eHyMhIHDlyhPXcvHmTQ5gm2IE1dZrgI5Hjs0tKOzA3/xx4BOTDO1iBx9pe4QVzPdiCZWRkYHR0FOfOnWNYMnz9+vXTwOVyOVavXi30rVy5EidOnIDRaMSePXu43+p5tVqNtWvXcnguW7ZMkDl69CjPtwP7KaUGPqH3cepyIQwm8wyP5cD9vIyLSURcOcbtI2Aaoy1Ybm4ulEqlYACt7uDgIMjAffv2QSqVYmxsjL23ZMkSEJRGo2Ejh4eHOecoX7OyskA5t3HjRtbl5+cHCt/i4mLOTZpz9uzZ6R5rbDfikxAFxBL1FJh9KFI4elzIh1dQPh43vJgGMrNhC0ZVrby8HAsXLmSD9u7di9OnT0Mmk02rmPX19RyKq1atEnKMwHbv3s1ytEAUugSwYcMG9Pa+jZzMzEzWT4syzWNXUqoZShyocAhGcF5SNX5IqJjJMq1tC5aWlsZjBHL48GGucmQcVbotW7YgPT2dx2trawUwnU7HfTPBaJFI9uDBg8KWQBMpDyksefFYEsC/HSb2lucFBTydAPMMVOLk1yo8NwxbVdj92oKR4ZRjVCCo2tEeR1XO19eXjSQPUR+FFRUPare3t7POmWD37t1jma1bt3I4W1+sUqlA1ZTz1Np5JaWGc8ftvMwpMHf/ydL/u6zeqsLu1xaMPEX5REYfOHAAJtPk10JpaSkbQx4gKNrHFi9ezKtOFZL6CMxaPGgL6ezsxJo1axjuzJkzGBkZ4Xk7duzgPg8Pj8lQ1D01wlcih2egHBRmbz1mLR5q7qcx25uOWSe/KZjTaxTzZDDd5LG+vj7s37+f25T8bm5uWLduHbcp38hAKuebNm0S5GhLoFPI9u3buS8pKYkX8Pr160I479y5kyskvWfz5s28OJxj0bdrIZYUCkaLg1T4PKyAq+IvaTXwlmpARyraoMlTDHdexm06RybItHbeog6tVguJRIKgoCBUV08eoLu7uxEWFgZaaYKhChYVFcVQViUVFRVcJf39/RETEwOz2QwCCQgIEPTQXPJ2aGgo6yI9tKdRONMlevZiAOLAPHgEFTIcnSzoNE+e0JvMiE6vhXdIEVdCjwt5fKyiRaDbK7gQ3tIinAovwEsXOxyLMjVtvDdJo0txOa4cP6fWoKTqGSq0vbBYxtHS9Qr3K7tQVtuDstpuxGTWISz2b0TEPQL9bXAqXM0bOo250iWivatHP/TONulNw2jufIXel3NXx3dW/h6Comd9w0iUtyI2ux5pyiakKhqRItdN3fQ82b411Ue/SfkNSMjRIj5Hhz9KulCl07+HCR9GVDRktqC4qgfSqw85f3wvlsJLWsR5xl/OnEca+IT+Cd+LZfAOLYFPcB6+uvYQyfJGlD/Rw/DqNeY5XX0Y6x1oFU4edO6r0D7Ht789gicVk0AF3Kb2KqqIZyOLEZlUhdwHbWjvGcAsXwoOXvP/Dwlgtq9+0mJA2I1HOBmmxo3sf/Ck2QDziMV2iss//weIunksNSA6gAAAAABJRU5ErkJggg==;rotation=0;" vertex="1" parent="1">
          <mxGeometry x="276.09" y="259.99" width="55.24" height="28.64" as="geometry" />
        </mxCell>
        <mxCell id="mggX9JK2n9Wl0W4keAl1-73" value="&lt;font style=&quot;font-size: 11px&quot;&gt;&amp;nbsp; &amp;nbsp; &amp;nbsp; &amp;nbsp; SIT Vnet&lt;/font&gt;" style="text;html=1;align=center;verticalAlign=middle;resizable=0;points=[];autosize=1;fontSize=10;fontFamily=Tahoma;" vertex="1" parent="1">
          <mxGeometry x="185" y="70" width="90" height="20" as="geometry" />
        </mxCell>
        <mxCell id="mggX9JK2n9Wl0W4keAl1-79" value="" style="aspect=fixed;html=1;points=[];align=center;image;fontSize=12;image=img/lib/azure2/networking/Virtual_Networks.svg;dashed=1;" vertex="1" parent="1">
          <mxGeometry x="675" y="80" width="35" height="20.9" as="geometry" />
        </mxCell>
        <mxCell id="mggX9JK2n9Wl0W4keAl1-81" value="" style="verticalLabelPosition=bottom;html=1;verticalAlign=top;align=center;strokeColor=none;fillColor=#00BEF2;shape=mxgraph.azure.azure_subscription;shadow=0;dashed=1;dashPattern=1 2;fontFamily=Tahoma;fontSize=10;" vertex="1" parent="1">
          <mxGeometry x="30" y="-125" width="50" height="35" as="geometry" />
        </mxCell>
        <mxCell id="mggX9JK2n9Wl0W4keAl1-82" value="&lt;font face=&quot;Tahoma&quot;&gt;&lt;span style=&quot;font-size: 11px&quot;&gt;Prod Subscription&lt;br&gt;&lt;br&gt;&lt;/span&gt;&lt;/font&gt;" style="aspect=fixed;html=1;points=[];align=center;image;fontSize=12;image=img/lib/azure2/general/Subscriptions.svg;shadow=0;dashed=1;dashPattern=1 2;strokeColor=#FF8000;gradientColor=#ffffff;" vertex="1" parent="1">
          <mxGeometry x="750" y="-121" width="44" height="71" as="geometry" />
        </mxCell>
        <mxCell id="mggX9JK2n9Wl0W4keAl1-83" value="&amp;nbsp; &amp;nbsp; &amp;nbsp; &amp;nbsp; &amp;nbsp; &amp;nbsp; &amp;nbsp; &amp;nbsp; &amp;nbsp; &amp;nbsp; &amp;nbsp; &amp;nbsp; &amp;nbsp; &amp;nbsp; &amp;nbsp; &amp;nbsp; &amp;nbsp; &amp;nbsp; &amp;nbsp; &amp;nbsp; &amp;nbsp; &amp;nbsp; &amp;nbsp; &amp;nbsp; &amp;nbsp; &amp;nbsp; &amp;nbsp; &amp;nbsp; &amp;nbsp; &amp;nbsp; &amp;nbsp; &amp;nbsp; &amp;nbsp; &amp;nbsp; &amp;nbsp; &amp;nbsp; &amp;nbsp; &amp;nbsp; &amp;nbsp; &amp;nbsp; &amp;nbsp; &amp;nbsp; &amp;nbsp; &amp;nbsp; &amp;nbsp; &amp;nbsp; &amp;nbsp; &amp;nbsp; &amp;nbsp; &amp;nbsp; &amp;nbsp; &amp;nbsp; &amp;nbsp; &amp;nbsp; &amp;nbsp; &amp;nbsp; &amp;nbsp; &amp;nbsp; &amp;nbsp; &amp;nbsp; &amp;nbsp; &amp;nbsp; &amp;nbsp; &lt;font face=&quot;Tahoma&quot; style=&quot;font-size: 11px&quot;&gt;Subnet&lt;/font&gt;" style="rounded=0;whiteSpace=wrap;html=1;dashed=1;verticalAlign=bottom;" vertex="1" parent="1">
          <mxGeometry x="221.09" y="340" width="490" height="220" as="geometry" />
        </mxCell>
        <mxCell id="mggX9JK2n9Wl0W4keAl1-84" value="&lt;font style=&quot;font-size: 11px&quot; face=&quot;Tahoma&quot;&gt;&lt;b&gt;AKS Cluster&lt;/b&gt;&lt;/font&gt;" style="rounded=0;whiteSpace=wrap;html=1;dashed=1;verticalAlign=bottom;align=left;" vertex="1" parent="1">
          <mxGeometry x="370" y="360" width="320" height="180" as="geometry" />
        </mxCell>
        <mxCell id="mggX9JK2n9Wl0W4keAl1-85" value="" style="rounded=1;whiteSpace=wrap;html=1;rotation=-90;dashed=1;" vertex="1" parent="1">
          <mxGeometry x="351.26" y="400" width="111.25" height="63.75" as="geometry" />
        </mxCell>
        <mxCell id="mggX9JK2n9Wl0W4keAl1-86" value="" style="shape=image;verticalLabelPosition=bottom;labelBackgroundColor=#ffffff;verticalAlign=top;aspect=fixed;imageAspect=0;image=data:image/png,iVBORw0KGgoAAAANSUhEUgAAADIAAAAyCAYAAAAeP4ixAAAEzUlEQVRoBe1az08bRxTOv9WoB65pwY56SavEySESFZFyTm5NW9kiCmkt2rQYs4td/INYpVLbqJeQpFWj4B9pKqEekwA5QCExIPBusb32V32ztb2/As7QGGN5pCfwzJvZ9+17M/PNvjnxTuQRekFO9AIIYnABORnN4qRS6G6JZl1R5ALybnQBA0oeA2oOA0qXibApD9rojKQmEHqCCiM/LmIitwzl8QtM5le6SmhTJL8ibKSttLkBqAVEKQgPRPIvoFcMGHVgz6h3ldAmrWIIMIwWToHXAiFqdujWYtTrIloOBMJwoidY6rU6Stv/YOdVCbubmkN0s35LR62DyPeMGqKFFRE9+3rECqS0rSP5yS+4NXwb34zY5dtLGVEfv/ozttZ3OuZAKSC7RQ3jF1O47p9BcFBxyBRu+BMY+zCBv5+/7HIgm5rwRHBQxbVTEy4JDU7jy0DqOAFRXCAIrA/kEIEoN0eaodX3yCHevXdXOY8UNXx1MY0b/qSYD5wTVhnzpzB2JoG1pxveT30LtVJASls64lfvIHwuLVYnrlBWCZ+dRWTkB6wvF9+Cyd5DSgHhjs3Nbu3ZhlhiuV9YZfXphgBR1iuo1zvDa6SAeL+To62VAsK3XK0YqJYNVPaqnsJ2qzdqRg3Vsrcux2AbdWSLFJA9vYLcnb8wH8vh/nd5mzyYKeCuuoDfbz8BORkLDVxeXMWDRAH3YlmbPvuzjm3UkQUjBaS0qWPi8vcI+VWETitu8akIn09ifcmc7PTcb6nHGP1ARdDn1mcd26hDz8gUKSA7xRK+Hp7FqC+Oz9+fcsl13wy+OJvE2jOTNDJ05mNZBIcUhIamXfqsY9u9eE6Ea8eA8AxC+k7m2w5pJBCGEL1H4M4+rAudVsGwpPdkipRH+kD6Hjk42KRCq4cmO5ffuf+WUi7BdgkO7bf82nXZN+hTj2b55YaY54Y4nRMrDVcbq5gb4h+2DXFpcRW/Jgq4H8/bdNmPdWyjTkc3RFIPo0rKYdIUz7+voSieumKcI6AoB0+9zmtITXbS+O2NXUHd10jhl17ZxEnjyeT5QY+URVB/hz7r2EZuRl16nEcAnmc4lnN88cznL4UNjY+AUkAaB6vxwCzCgSTC59N2OZe2HazIhB9m/kT4QhrhgEOXfVl3IYWHmSeCVdOfBBG5NCcOb67xA0nw2Tzc0RYWKSD8QPcmR11SlLvKAj57LwryMOuxmP+zjm3zarZJUcjTbn6UAI/NTn3+5jGbNtAWeSAd4FoMJ3qCRju5GX+T55HvkS71gXSCNPY9clCix5pWaHmkvY/YrfOI2vZ5hEtsOGBOdO85ov4Pc+QN0wrczXm+//RUBKO+mCMNoYg6tpHyUJeFn5dunpkRKYrg4JSrD1Ma44ddtVqJnox4K9ZkTyPRE7vSSvRwHyE3i1yew62P7Ykh9mUd26hDXRZuuLErP4mkEce0PkP0Gc6IZFPjA4fUPtJO6o0bVWPXNXfqsljzd4rOVJ0GUVfUUNbLzU9IJI8cw0zv6Y70nibqyRZoC0vbQHomGco8tlZmepqp6VpXCW2ibZHcfslQ64WBrHlhgNnTbhJGy0R2ef8LAyLxPvlI3H44Flc4Ju23mpo3Hxo3CHrmUk0D0HH76/LIcQPQsPdfHtFzSMz5KD8AAAAASUVORK5CYII=;" vertex="1" parent="1">
          <mxGeometry x="385" y="390" width="40" height="40" as="geometry" />
        </mxCell>
        <mxCell id="mggX9JK2n9Wl0W4keAl1-87" value="" style="shape=image;verticalLabelPosition=bottom;labelBackgroundColor=#ffffff;verticalAlign=top;aspect=fixed;imageAspect=0;image=data:image/png,iVBORw0KGgoAAAANSUhEUgAAADIAAAAyCAYAAAAeP4ixAAAEzUlEQVRoBe1az08bRxTOv9WoB65pwY56SavEySESFZFyTm5NW9kiCmkt2rQYs4td/INYpVLbqJeQpFWj4B9pKqEekwA5QCExIPBusb32V32ztb2/As7QGGN5pCfwzJvZ9+17M/PNvjnxTuQRekFO9AIIYnABORnN4qRS6G6JZl1R5ALybnQBA0oeA2oOA0qXibApD9rojKQmEHqCCiM/LmIitwzl8QtM5le6SmhTJL8ibKSttLkBqAVEKQgPRPIvoFcMGHVgz6h3ldAmrWIIMIwWToHXAiFqdujWYtTrIloOBMJwoidY6rU6Stv/YOdVCbubmkN0s35LR62DyPeMGqKFFRE9+3rECqS0rSP5yS+4NXwb34zY5dtLGVEfv/ozttZ3OuZAKSC7RQ3jF1O47p9BcFBxyBRu+BMY+zCBv5+/7HIgm5rwRHBQxbVTEy4JDU7jy0DqOAFRXCAIrA/kEIEoN0eaodX3yCHevXdXOY8UNXx1MY0b/qSYD5wTVhnzpzB2JoG1pxveT30LtVJASls64lfvIHwuLVYnrlBWCZ+dRWTkB6wvF9+Cyd5DSgHhjs3Nbu3ZhlhiuV9YZfXphgBR1iuo1zvDa6SAeL+To62VAsK3XK0YqJYNVPaqnsJ2qzdqRg3Vsrcux2AbdWSLFJA9vYLcnb8wH8vh/nd5mzyYKeCuuoDfbz8BORkLDVxeXMWDRAH3YlmbPvuzjm3UkQUjBaS0qWPi8vcI+VWETitu8akIn09ifcmc7PTcb6nHGP1ARdDn1mcd26hDz8gUKSA7xRK+Hp7FqC+Oz9+fcsl13wy+OJvE2jOTNDJ05mNZBIcUhIamXfqsY9u9eE6Ea8eA8AxC+k7m2w5pJBCGEL1H4M4+rAudVsGwpPdkipRH+kD6Hjk42KRCq4cmO5ffuf+WUi7BdgkO7bf82nXZN+hTj2b55YaY54Y4nRMrDVcbq5gb4h+2DXFpcRW/Jgq4H8/bdNmPdWyjTkc3RFIPo0rKYdIUz7+voSieumKcI6AoB0+9zmtITXbS+O2NXUHd10jhl17ZxEnjyeT5QY+URVB/hz7r2EZuRl16nEcAnmc4lnN88cznL4UNjY+AUkAaB6vxwCzCgSTC59N2OZe2HazIhB9m/kT4QhrhgEOXfVl3IYWHmSeCVdOfBBG5NCcOb67xA0nw2Tzc0RYWKSD8QPcmR11SlLvKAj57LwryMOuxmP+zjm3zarZJUcjTbn6UAI/NTn3+5jGbNtAWeSAd4FoMJ3qCRju5GX+T55HvkS71gXSCNPY9clCix5pWaHmkvY/YrfOI2vZ5hEtsOGBOdO85ov4Pc+QN0wrczXm+//RUBKO+mCMNoYg6tpHyUJeFn5dunpkRKYrg4JSrD1Ma44ddtVqJnox4K9ZkTyPRE7vSSvRwHyE3i1yew62P7Ykh9mUd26hDXRZuuLErP4mkEce0PkP0Gc6IZFPjA4fUPtJO6o0bVWPXNXfqsljzd4rOVJ0GUVfUUNbLzU9IJI8cw0zv6Y70nibqyRZoC0vbQHomGco8tlZmepqp6VpXCW2ibZHcfslQ64WBrHlhgNnTbhJGy0R2ef8LAyLxPvlI3H44Flc4Ju23mpo3Hxo3CHrmUk0D0HH76/LIcQPQsPdfHtFzSMz5KD8AAAAASUVORK5CYII=;" vertex="1" parent="1">
          <mxGeometry x="386.88" y="440" width="40" height="40" as="geometry" />
        </mxCell>
        <mxCell id="mggX9JK2n9Wl0W4keAl1-88" value="" style="rounded=1;whiteSpace=wrap;html=1;rotation=-90;dashed=1;" vertex="1" parent="1">
          <mxGeometry x="425" y="400" width="111.25" height="63.75" as="geometry" />
        </mxCell>
        <mxCell id="mggX9JK2n9Wl0W4keAl1-89" value="" style="shape=image;verticalLabelPosition=bottom;labelBackgroundColor=#ffffff;verticalAlign=top;aspect=fixed;imageAspect=0;image=data:image/png,iVBORw0KGgoAAAANSUhEUgAAADIAAAAyCAYAAAAeP4ixAAAEzUlEQVRoBe1az08bRxTOv9WoB65pwY56SavEySESFZFyTm5NW9kiCmkt2rQYs4td/INYpVLbqJeQpFWj4B9pKqEekwA5QCExIPBusb32V32ztb2/As7QGGN5pCfwzJvZ9+17M/PNvjnxTuQRekFO9AIIYnABORnN4qRS6G6JZl1R5ALybnQBA0oeA2oOA0qXibApD9rojKQmEHqCCiM/LmIitwzl8QtM5le6SmhTJL8ibKSttLkBqAVEKQgPRPIvoFcMGHVgz6h3ldAmrWIIMIwWToHXAiFqdujWYtTrIloOBMJwoidY6rU6Stv/YOdVCbubmkN0s35LR62DyPeMGqKFFRE9+3rECqS0rSP5yS+4NXwb34zY5dtLGVEfv/ozttZ3OuZAKSC7RQ3jF1O47p9BcFBxyBRu+BMY+zCBv5+/7HIgm5rwRHBQxbVTEy4JDU7jy0DqOAFRXCAIrA/kEIEoN0eaodX3yCHevXdXOY8UNXx1MY0b/qSYD5wTVhnzpzB2JoG1pxveT30LtVJASls64lfvIHwuLVYnrlBWCZ+dRWTkB6wvF9+Cyd5DSgHhjs3Nbu3ZhlhiuV9YZfXphgBR1iuo1zvDa6SAeL+To62VAsK3XK0YqJYNVPaqnsJ2qzdqRg3Vsrcux2AbdWSLFJA9vYLcnb8wH8vh/nd5mzyYKeCuuoDfbz8BORkLDVxeXMWDRAH3YlmbPvuzjm3UkQUjBaS0qWPi8vcI+VWETitu8akIn09ifcmc7PTcb6nHGP1ARdDn1mcd26hDz8gUKSA7xRK+Hp7FqC+Oz9+fcsl13wy+OJvE2jOTNDJ05mNZBIcUhIamXfqsY9u9eE6Ea8eA8AxC+k7m2w5pJBCGEL1H4M4+rAudVsGwpPdkipRH+kD6Hjk42KRCq4cmO5ffuf+WUi7BdgkO7bf82nXZN+hTj2b55YaY54Y4nRMrDVcbq5gb4h+2DXFpcRW/Jgq4H8/bdNmPdWyjTkc3RFIPo0rKYdIUz7+voSieumKcI6AoB0+9zmtITXbS+O2NXUHd10jhl17ZxEnjyeT5QY+URVB/hz7r2EZuRl16nEcAnmc4lnN88cznL4UNjY+AUkAaB6vxwCzCgSTC59N2OZe2HazIhB9m/kT4QhrhgEOXfVl3IYWHmSeCVdOfBBG5NCcOb67xA0nw2Tzc0RYWKSD8QPcmR11SlLvKAj57LwryMOuxmP+zjm3zarZJUcjTbn6UAI/NTn3+5jGbNtAWeSAd4FoMJ3qCRju5GX+T55HvkS71gXSCNPY9clCix5pWaHmkvY/YrfOI2vZ5hEtsOGBOdO85ov4Pc+QN0wrczXm+//RUBKO+mCMNoYg6tpHyUJeFn5dunpkRKYrg4JSrD1Ma44ddtVqJnox4K9ZkTyPRE7vSSvRwHyE3i1yew62P7Ykh9mUd26hDXRZuuLErP4mkEce0PkP0Gc6IZFPjA4fUPtJO6o0bVWPXNXfqsljzd4rOVJ0GUVfUUNbLzU9IJI8cw0zv6Y70nibqyRZoC0vbQHomGco8tlZmepqp6VpXCW2ibZHcfslQ64WBrHlhgNnTbhJGy0R2ef8LAyLxPvlI3H44Flc4Ju23mpo3Hxo3CHrmUk0D0HH76/LIcQPQsPdfHtFzSMz5KD8AAAAASUVORK5CYII=;" vertex="1" parent="1">
          <mxGeometry x="460.63" y="390" width="40" height="40" as="geometry" />
        </mxCell>
        <mxCell id="mggX9JK2n9Wl0W4keAl1-90" value="" style="shape=image;verticalLabelPosition=bottom;labelBackgroundColor=#ffffff;verticalAlign=top;aspect=fixed;imageAspect=0;image=data:image/png,iVBORw0KGgoAAAANSUhEUgAAADIAAAAyCAYAAAAeP4ixAAAEzUlEQVRoBe1az08bRxTOv9WoB65pwY56SavEySESFZFyTm5NW9kiCmkt2rQYs4td/INYpVLbqJeQpFWj4B9pKqEekwA5QCExIPBusb32V32ztb2/As7QGGN5pCfwzJvZ9+17M/PNvjnxTuQRekFO9AIIYnABORnN4qRS6G6JZl1R5ALybnQBA0oeA2oOA0qXibApD9rojKQmEHqCCiM/LmIitwzl8QtM5le6SmhTJL8ibKSttLkBqAVEKQgPRPIvoFcMGHVgz6h3ldAmrWIIMIwWToHXAiFqdujWYtTrIloOBMJwoidY6rU6Stv/YOdVCbubmkN0s35LR62DyPeMGqKFFRE9+3rECqS0rSP5yS+4NXwb34zY5dtLGVEfv/ozttZ3OuZAKSC7RQ3jF1O47p9BcFBxyBRu+BMY+zCBv5+/7HIgm5rwRHBQxbVTEy4JDU7jy0DqOAFRXCAIrA/kEIEoN0eaodX3yCHevXdXOY8UNXx1MY0b/qSYD5wTVhnzpzB2JoG1pxveT30LtVJASls64lfvIHwuLVYnrlBWCZ+dRWTkB6wvF9+Cyd5DSgHhjs3Nbu3ZhlhiuV9YZfXphgBR1iuo1zvDa6SAeL+To62VAsK3XK0YqJYNVPaqnsJ2qzdqRg3Vsrcux2AbdWSLFJA9vYLcnb8wH8vh/nd5mzyYKeCuuoDfbz8BORkLDVxeXMWDRAH3YlmbPvuzjm3UkQUjBaS0qWPi8vcI+VWETitu8akIn09ifcmc7PTcb6nHGP1ARdDn1mcd26hDz8gUKSA7xRK+Hp7FqC+Oz9+fcsl13wy+OJvE2jOTNDJ05mNZBIcUhIamXfqsY9u9eE6Ea8eA8AxC+k7m2w5pJBCGEL1H4M4+rAudVsGwpPdkipRH+kD6Hjk42KRCq4cmO5ffuf+WUi7BdgkO7bf82nXZN+hTj2b55YaY54Y4nRMrDVcbq5gb4h+2DXFpcRW/Jgq4H8/bdNmPdWyjTkc3RFIPo0rKYdIUz7+voSieumKcI6AoB0+9zmtITXbS+O2NXUHd10jhl17ZxEnjyeT5QY+URVB/hz7r2EZuRl16nEcAnmc4lnN88cznL4UNjY+AUkAaB6vxwCzCgSTC59N2OZe2HazIhB9m/kT4QhrhgEOXfVl3IYWHmSeCVdOfBBG5NCcOb67xA0nw2Tzc0RYWKSD8QPcmR11SlLvKAj57LwryMOuxmP+zjm3zarZJUcjTbn6UAI/NTn3+5jGbNtAWeSAd4FoMJ3qCRju5GX+T55HvkS71gXSCNPY9clCix5pWaHmkvY/YrfOI2vZ5hEtsOGBOdO85ov4Pc+QN0wrczXm+//RUBKO+mCMNoYg6tpHyUJeFn5dunpkRKYrg4JSrD1Ma44ddtVqJnox4K9ZkTyPRE7vSSvRwHyE3i1yew62P7Ykh9mUd26hDXRZuuLErP4mkEce0PkP0Gc6IZFPjA4fUPtJO6o0bVWPXNXfqsljzd4rOVJ0GUVfUUNbLzU9IJI8cw0zv6Y70nibqyRZoC0vbQHomGco8tlZmepqp6VpXCW2ibZHcfslQ64WBrHlhgNnTbhJGy0R2ef8LAyLxPvlI3H44Flc4Ju23mpo3Hxo3CHrmUk0D0HH76/LIcQPQsPdfHtFzSMz5KD8AAAAASUVORK5CYII=;" vertex="1" parent="1">
          <mxGeometry x="462.51" y="440" width="40" height="40" as="geometry" />
        </mxCell>
        <mxCell id="mggX9JK2n9Wl0W4keAl1-91" value="" style="rounded=1;whiteSpace=wrap;html=1;rotation=-90;dashed=1;" vertex="1" parent="1">
          <mxGeometry x="495.63" y="400" width="111.25" height="63.75" as="geometry" />
        </mxCell>
        <mxCell id="mggX9JK2n9Wl0W4keAl1-92" value="" style="shape=image;verticalLabelPosition=bottom;labelBackgroundColor=#ffffff;verticalAlign=top;aspect=fixed;imageAspect=0;image=data:image/png,iVBORw0KGgoAAAANSUhEUgAAADIAAAAyCAYAAAAeP4ixAAAEzUlEQVRoBe1az08bRxTOv9WoB65pwY56SavEySESFZFyTm5NW9kiCmkt2rQYs4td/INYpVLbqJeQpFWj4B9pKqEekwA5QCExIPBusb32V32ztb2/As7QGGN5pCfwzJvZ9+17M/PNvjnxTuQRekFO9AIIYnABORnN4qRS6G6JZl1R5ALybnQBA0oeA2oOA0qXibApD9rojKQmEHqCCiM/LmIitwzl8QtM5le6SmhTJL8ibKSttLkBqAVEKQgPRPIvoFcMGHVgz6h3ldAmrWIIMIwWToHXAiFqdujWYtTrIloOBMJwoidY6rU6Stv/YOdVCbubmkN0s35LR62DyPeMGqKFFRE9+3rECqS0rSP5yS+4NXwb34zY5dtLGVEfv/ozttZ3OuZAKSC7RQ3jF1O47p9BcFBxyBRu+BMY+zCBv5+/7HIgm5rwRHBQxbVTEy4JDU7jy0DqOAFRXCAIrA/kEIEoN0eaodX3yCHevXdXOY8UNXx1MY0b/qSYD5wTVhnzpzB2JoG1pxveT30LtVJASls64lfvIHwuLVYnrlBWCZ+dRWTkB6wvF9+Cyd5DSgHhjs3Nbu3ZhlhiuV9YZfXphgBR1iuo1zvDa6SAeL+To62VAsK3XK0YqJYNVPaqnsJ2qzdqRg3Vsrcux2AbdWSLFJA9vYLcnb8wH8vh/nd5mzyYKeCuuoDfbz8BORkLDVxeXMWDRAH3YlmbPvuzjm3UkQUjBaS0qWPi8vcI+VWETitu8akIn09ifcmc7PTcb6nHGP1ARdDn1mcd26hDz8gUKSA7xRK+Hp7FqC+Oz9+fcsl13wy+OJvE2jOTNDJ05mNZBIcUhIamXfqsY9u9eE6Ea8eA8AxC+k7m2w5pJBCGEL1H4M4+rAudVsGwpPdkipRH+kD6Hjk42KRCq4cmO5ffuf+WUi7BdgkO7bf82nXZN+hTj2b55YaY54Y4nRMrDVcbq5gb4h+2DXFpcRW/Jgq4H8/bdNmPdWyjTkc3RFIPo0rKYdIUz7+voSieumKcI6AoB0+9zmtITXbS+O2NXUHd10jhl17ZxEnjyeT5QY+URVB/hz7r2EZuRl16nEcAnmc4lnN88cznL4UNjY+AUkAaB6vxwCzCgSTC59N2OZe2HazIhB9m/kT4QhrhgEOXfVl3IYWHmSeCVdOfBBG5NCcOb67xA0nw2Tzc0RYWKSD8QPcmR11SlLvKAj57LwryMOuxmP+zjm3zarZJUcjTbn6UAI/NTn3+5jGbNtAWeSAd4FoMJ3qCRju5GX+T55HvkS71gXSCNPY9clCix5pWaHmkvY/YrfOI2vZ5hEtsOGBOdO85ov4Pc+QN0wrczXm+//RUBKO+mCMNoYg6tpHyUJeFn5dunpkRKYrg4JSrD1Ma44ddtVqJnox4K9ZkTyPRE7vSSvRwHyE3i1yew62P7Ykh9mUd26hDXRZuuLErP4mkEce0PkP0Gc6IZFPjA4fUPtJO6o0bVWPXNXfqsljzd4rOVJ0GUVfUUNbLzU9IJI8cw0zv6Y70nibqyRZoC0vbQHomGco8tlZmepqp6VpXCW2ibZHcfslQ64WBrHlhgNnTbhJGy0R2ef8LAyLxPvlI3H44Flc4Ju23mpo3Hxo3CHrmUk0D0HH76/LIcQPQsPdfHtFzSMz5KD8AAAAASUVORK5CYII=;" vertex="1" parent="1">
          <mxGeometry x="530.62" y="390" width="40" height="40" as="geometry" />
        </mxCell>
        <mxCell id="mggX9JK2n9Wl0W4keAl1-93" value="" style="shape=image;verticalLabelPosition=bottom;labelBackgroundColor=#ffffff;verticalAlign=top;aspect=fixed;imageAspect=0;image=data:image/png,iVBORw0KGgoAAAANSUhEUgAAADIAAAAyCAYAAAAeP4ixAAAEzUlEQVRoBe1az08bRxTOv9WoB65pwY56SavEySESFZFyTm5NW9kiCmkt2rQYs4td/INYpVLbqJeQpFWj4B9pKqEekwA5QCExIPBusb32V32ztb2/As7QGGN5pCfwzJvZ9+17M/PNvjnxTuQRekFO9AIIYnABORnN4qRS6G6JZl1R5ALybnQBA0oeA2oOA0qXibApD9rojKQmEHqCCiM/LmIitwzl8QtM5le6SmhTJL8ibKSttLkBqAVEKQgPRPIvoFcMGHVgz6h3ldAmrWIIMIwWToHXAiFqdujWYtTrIloOBMJwoidY6rU6Stv/YOdVCbubmkN0s35LR62DyPeMGqKFFRE9+3rECqS0rSP5yS+4NXwb34zY5dtLGVEfv/ozttZ3OuZAKSC7RQ3jF1O47p9BcFBxyBRu+BMY+zCBv5+/7HIgm5rwRHBQxbVTEy4JDU7jy0DqOAFRXCAIrA/kEIEoN0eaodX3yCHevXdXOY8UNXx1MY0b/qSYD5wTVhnzpzB2JoG1pxveT30LtVJASls64lfvIHwuLVYnrlBWCZ+dRWTkB6wvF9+Cyd5DSgHhjs3Nbu3ZhlhiuV9YZfXphgBR1iuo1zvDa6SAeL+To62VAsK3XK0YqJYNVPaqnsJ2qzdqRg3Vsrcux2AbdWSLFJA9vYLcnb8wH8vh/nd5mzyYKeCuuoDfbz8BORkLDVxeXMWDRAH3YlmbPvuzjm3UkQUjBaS0qWPi8vcI+VWETitu8akIn09ifcmc7PTcb6nHGP1ARdDn1mcd26hDz8gUKSA7xRK+Hp7FqC+Oz9+fcsl13wy+OJvE2jOTNDJ05mNZBIcUhIamXfqsY9u9eE6Ea8eA8AxC+k7m2w5pJBCGEL1H4M4+rAudVsGwpPdkipRH+kD6Hjk42KRCq4cmO5ffuf+WUi7BdgkO7bf82nXZN+hTj2b55YaY54Y4nRMrDVcbq5gb4h+2DXFpcRW/Jgq4H8/bdNmPdWyjTkc3RFIPo0rKYdIUz7+voSieumKcI6AoB0+9zmtITXbS+O2NXUHd10jhl17ZxEnjyeT5QY+URVB/hz7r2EZuRl16nEcAnmc4lnN88cznL4UNjY+AUkAaB6vxwCzCgSTC59N2OZe2HazIhB9m/kT4QhrhgEOXfVl3IYWHmSeCVdOfBBG5NCcOb67xA0nw2Tzc0RYWKSD8QPcmR11SlLvKAj57LwryMOuxmP+zjm3zarZJUcjTbn6UAI/NTn3+5jGbNtAWeSAd4FoMJ3qCRju5GX+T55HvkS71gXSCNPY9clCix5pWaHmkvY/YrfOI2vZ5hEtsOGBOdO85ov4Pc+QN0wrczXm+//RUBKO+mCMNoYg6tpHyUJeFn5dunpkRKYrg4JSrD1Ma44ddtVqJnox4K9ZkTyPRE7vSSvRwHyE3i1yew62P7Ykh9mUd26hDXRZuuLErP4mkEce0PkP0Gc6IZFPjA4fUPtJO6o0bVWPXNXfqsljzd4rOVJ0GUVfUUNbLzU9IJI8cw0zv6Y70nibqyRZoC0vbQHomGco8tlZmepqp6VpXCW2ibZHcfslQ64WBrHlhgNnTbhJGy0R2ef8LAyLxPvlI3H44Flc4Ju23mpo3Hxo3CHrmUk0D0HH76/LIcQPQsPdfHtFzSMz5KD8AAAAASUVORK5CYII=;" vertex="1" parent="1">
          <mxGeometry x="531.26" y="440" width="40" height="40" as="geometry" />
        </mxCell>
      </root>
    </mxGraphModel>
  </diagram>
</mxfile>
